<?xml version="1.0" encoding="utf-8"?>
<!-- Generator: Adobe Illustrator 27.1.1, SVG Export Plug-In . SVG Version: 6.00 Build 0)  -->
<svg version="1.1" id="Layer_1" xmlns="http://www.w3.org/2000/svg" xmlns:xlink="http://www.w3.org/1999/xlink" x="0px" y="0px"
	 width="316.4px" height="326px" viewBox="0 0 316.4 326" style="enable-background:new 0 0 316.4 326;" xml:space="preserve">
<style type="text/css">
	.st0{fill:#3C3C3C;}
	.st1{fill:#666565;}
	.st2{fill:#EDEDED;}
	.st3{fill:#181818;}
	.st4{fill:#B2B2B2;}
	.st5{fill:#D7D7D7;}
	.st6{fill:#9A9A9A;}
	.st7{fill:#FFFFFF;}
	.st8{fill:#E6E6E6;}
	.st9{fill:#383838;}
	.st10{fill:#F58220;}
	.st11{opacity:0.32;fill:#EEECEC;enable-background:new    ;}
	.st12{fill:#A3A3A3;}
	.st13{fill:#D85B2A;}
	.st14{fill:#E96724;}
	.st15{fill:#E4E4E4;}
	.st16{fill:#545353;}
</style>
<g id="brokerage-charges" transform="translate(-13.9 -12.12)">
	<g id="Group_38273" transform="translate(13.9 54.13)">
		<g id="Group_38271">
			<path id="Path_13918" class="st0" d="M150.1,260.8V22.3c0-3.2,0-6.4-1.2-9.5c-2.2-5.8-6.9-10.2-12.8-12c-2.2-0.6-4.5-0.9-6.8-0.8
				H22.2c-1,0-2,0-2.9,0C13,0.3,7.3,3.5,3.8,8.6c-2.7,3.9-3.3,8.3-3.3,12.9V264c-0.1,9,6,16.9,14.7,19.3c3.7,0.9,7.8,0.6,11.5,0.6
				h103.8c10.8-0.1,19.5-8.8,19.6-19.6c0-0.6,0-1.2,0-1.8C150.1,261.9,150.1,261.3,150.1,260.8z M147.8,264.1
				c0,9.6-7.7,17.5-17.3,17.6H26.9c-3.5,0-7.4,0.4-10.8-0.4c-8-2-13.6-9.2-13.4-17.5V21.9c0-3.8,0.3-7.5,2.2-10.9
				C8,5.6,13.8,2.2,20,2.2c0.8,0,1.6,0,2.5,0h106.7c1.9-0.1,3.8,0.1,5.6,0.5c6.2,1.6,11.1,6.6,12.6,12.8c0.4,2.4,0.6,4.8,0.5,7.2
				v222.6c0,5.1,0,10.3,0,15.4v1.6C147.8,263,147.8,263.6,147.8,264.1L147.8,264.1z"/>
			<path id="Path_13919" class="st1" d="M147.8,22.8c0.1-2.4,0-4.8-0.5-7.2c-1.5-6.3-6.4-11.2-12.6-12.8c-1.8-0.4-3.7-0.6-5.6-0.5
				H22.5c-0.8,0-1.6,0-2.5,0C13.8,2.2,8,5.6,4.9,11c-2,3.5-2.2,7.1-2.2,10.9v241.9c0,8.2,5.2,15.5,13.4,17.5
				c3.4,0.8,7.3,0.4,10.8,0.4h103.6c9.6-0.1,17.4-7.9,17.3-17.6c0-0.6,0-1.1,0-1.7v-1.6c0-5.1,0-10.3,0-15.4V22.8L147.8,22.8z
				 M143.6,264.1c0,4.9-2.7,9.4-7,11.7c-1.9,1-4,1.6-6.2,1.6H26.9c-0.9,0-1.7,0-2.6,0c-0.8,0-1.7,0-2.5,0c-1.6,0-3.2-0.1-4.7-0.4
				c-2.9-0.7-5.5-2.4-7.3-4.8C8,269.7,7,266.7,7,263.7V21.9c0-3.6,0.3-6.3,1.7-8.8C11,9,15.3,6.5,20.1,6.4c0.3,0,0.5,0,0.8,0
				s1.4,0,1.6,0h106.7c1.5-0.1,3.1,0.1,4.6,0.4c4.7,1.2,8.4,5,9.5,9.7c0.3,1.7,0.4,3.5,0.3,5.2v229.9
				C143.6,255.7,143.6,260,143.6,264.1L143.6,264.1z"/>
			<path id="Path_13920" class="st2" d="M143.6,251.6V21.7c0.1-1.7,0-3.5-0.3-5.2c-1.1-4.7-4.8-8.5-9.5-9.7c-1.5-0.3-3-0.5-4.6-0.4
				H22.5c-0.3,0-1.4,0-1.6,0c-0.3,0-0.5,0-0.8,0C15.3,6.5,11,9,8.6,13.1c-1.4,2.5-1.7,5.2-1.7,8.8v241.9c0,3.1,1,6.1,2.8,8.5
				s4.4,4.1,7.3,4.8c1.6,0.3,3.1,0.4,4.7,0.4c0.8,0,1.7,0,2.5,0s1.7,0,2.6,0h103.6c2.2,0,4.3-0.6,6.2-1.6c4.3-2.3,7-6.8,7-11.7
				C143.6,260,143.6,255.7,143.6,251.6z M61.8,13.9h26.8c0.7,0,1.3,0.6,1.3,1.3s-0.6,1.3-1.3,1.3l0,0H61.8c-0.7,0-1.3-0.6-1.3-1.3
				C60.6,14.5,61.1,13.9,61.8,13.9L61.8,13.9z M107,272.1L107,272.1c-2.7,0.1-5.3,0-7.8,0H43.4c-0.5,0-0.8-0.4-0.8-0.8
				c0-0.5,0.4-0.8,0.8-0.8l0,0h0.1c2.6-0.1,5.2,0,7.7,0H107c0.5,0,0.8,0.4,0.8,0.8S107.5,272.1,107,272.1L107,272.1L107,272.1z"/>
			<path id="Path_13921" class="st3" d="M150.4,118.2L150.4,118.2c-0.7,0-1.3-0.5-1.3-1.2V82.7c0-0.7,0.5-1.2,1.2-1.2l0,0v36.7
				H150.4z"/>
			<path id="Path_13922" class="st3" d="M0,78L0,78c0.7,0,1.3,0.5,1.3,1.2V99c0,0.7-0.5,1.2-1.2,1.2l0,0L0,78L0,78z"/>
			<path id="Path_13923" class="st3" d="M0,37.5L0,37.5c0.7,0,1.2,0.5,1.3,1.2v9.1C1.2,48.5,0.7,49,0,49l0,0V37.5z"/>
			<path id="Path_13924" class="st3" d="M0,107.5L0,107.5c0.7,0,1.3,0.5,1.3,1.2v19.9c0,0.7-0.5,1.2-1.2,1.2l0,0L0,107.5L0,107.5z"
				/>
			<rect id="Rectangle_4755" x="146.8" y="27.2" class="st3" width="3.3" height="1.6"/>
			<rect id="Rectangle_4756" x="0.4" y="27.2" class="st3" width="3.3" height="1.6"/>
			<rect id="Rectangle_4757" x="146.8" y="260.8" class="st3" width="3.3" height="1.6"/>
			<rect id="Rectangle_4758" x="0.4" y="260.8" class="st3" width="3.3" height="1.6"/>
		</g>
		<g id="Group_38272" transform="translate(42.555 270.342)">
			<path id="Path_13925" class="st4" d="M64.4,1.7L64.4,1.7c-2.7,0.1-5.3,0-7.8,0H0.9C0.4,1.7,0,1.4,0,0.9S0.4,0,0.9,0l0,0H1
				c2.6-0.1,5.2,0,7.7,0h55.8c0.5,0,0.8,0.4,0.8,0.8S64.9,1.7,64.4,1.7L64.4,1.7z"/>
		</g>
	</g>
	<g id="Group_38275" transform="translate(20.802 157.386)">
		<path id="Path_13926" class="st5" d="M212.6,70.4c0,0.4,0,0.8-0.1,1.2l0,0v0.2c-0.5,2.9-2.9,5.1-5.8,5.5c-0.6,0.1-1.2,0.1-1.8,0
			l-29.6-4.8l-3.6-0.6l-19-3.1c-0.5-0.1-1.1,0.3-1.2,0.8l23.3,4.5l4.1,0.8l18.3,3.5c2.5,0.5,4.4,2.4,4.9,4.8
			c0.1,0.6,0.2,1.2,0.1,1.7c0,0.2,0,0.4-0.1,0.7v0.2c-0.5,2.6-2.5,4.6-5.1,5.1c-0.7,0.1-1.3,0.1-2,0l-25.5-3.8l-6.4-1L141,82.8
			c-0.4-0.1-0.8,0.2-0.9,0.7l27.7,6.1l7.2,1.6c2.7,0.6,4.4,3.2,3.9,5.9l-0.1,0.4c-0.5,2.7-3,4.5-5.7,4.2L130,95.8
			c-1.8-0.2-3.5-0.6-5.3-1.1l-33.9-8.9c-3.2-0.8-6.2-2-9.1-3.5l-15.5-8c-3.2-1.7-6.6-2.8-10.2-3.4l-56-10V13.7l65.3,11.5
			c3,0.5,6.1,0.7,9.2,0.4c3.5-0.3,7-1.1,10.3-2.5l24.5-9.9c4.6-1.9,9.6-2.7,14.6-2.6l5.3,0.2c2.9,0.1,5.7-0.1,8.5-0.7l11-2.3
			l1.9-0.4l8.3-1.7h0.1c0.1,0,0.2,0,0.2,0c0.1,0,0.1,0,0.2,0c0.1,0,0.1,0,0.2,0c0.1,0,0.2,0,0.3,0s0.2,0,0.2,0h0.2
			c0.2,0,0.3,0.1,0.5,0.1c0.1,0,0.2,0,0.2,0.1c0.1,0,0.1,0,0.2,0.1c0.1,0.1,0.3,0.1,0.4,0.2c0.1,0.1,0.3,0.2,0.4,0.2
			c0.9,0.6,1.6,1.4,1.9,2.4c0.9,3,0.2,6.4-1.9,8.7c-0.5,0.5-1,1-1.6,1.4l-0.1,0.1c-5.1,3.6-11,6.1-17.1,7.4l-7.4,1.5l-0.3,0.1
			l-2.1,0.4c-0.3,0.1-0.6,0.1-0.9,0.2h-0.1l19.3,6.1c2,0.6,3.9,1.2,5.9,1.7l9.6,2.5l22.6,5.8l4.8,1.2l6.5,1.7c3,0.8,5,3.8,4.4,6.8
			l-0.1,0.5c-0.1,0.7-0.4,1.4-0.7,2c-1.3,2.2-3.7,3.3-6.2,2.9l-17-2.8l-3.8-0.6l-5.2-0.9l-16.6-2.8c-0.7-0.1-1.4,0.4-1.6,1.1
			l13.7,2.6l13.4,2.6l4.3,0.8l21.6,4.1C210.3,64.5,212.6,67.2,212.6,70.4z"/>
		<g id="Group_38274" transform="translate(0.016 0)">
			<path id="Path_13927" class="st6" d="M48.9,8.6l-1.3,7.3l-5.5,30.9l-4.7,26.8l-1.3,7.3L0,74.6V0L48.9,8.6z"/>
			
				<rect id="Rectangle_4759" x="22.4" y="37.2" transform="matrix(0.1737 -0.9848 0.9848 0.1737 -3.0464 89.237)" class="st7" width="58.6" height="18.5"/>
			<path id="Path_13928" class="st8" d="M60.4,50.1l-4.7,26.8l-18.3-3.2L36.1,81L0,74.6V39.4l42.2,7.4L60.4,50.1z"/>
		</g>
		<path id="Path_13929" class="st9" d="M207.2,63.9l-21.6-4.1l-4.3-0.8l-27-5.2c0.1-0.7,0.8-1.2,1.6-1.1l21.9,3.7l3.8,0.6l17.2,2.9
			c2.5,0.4,4.9-0.7,6.2-2.9c0.4-0.6,0.6-1.3,0.7-2l0.1-0.5c0.5-3.1-1.4-6.1-4.4-6.8l-11.3-2.9l-32.2-8.3c-2-0.5-4-1.1-5.9-1.7
			l-19.3-6.1h0.1c0.3-0.1,0.6-0.2,0.9-0.2l2.1-0.4l0.3-0.1l7.4-1.5c6.2-1.2,12-3.7,17.1-7.4l0.1-0.1c0.6-0.4,1.1-0.9,1.6-1.4
			c2.1-2.4,2.8-5.7,1.9-8.8c-0.3-1-1-1.9-1.9-2.4c-0.1-0.1-0.3-0.2-0.4-0.2c-0.1-0.1-0.3-0.1-0.4-0.2c-0.1,0-0.1,0-0.2-0.1
			c-0.1,0-0.1,0-0.2-0.1c-0.2,0-0.3-0.1-0.5-0.1c-0.1,0-0.1,0-0.2,0c-0.1,0-0.2,0-0.2,0c-0.1,0-0.2,0-0.3,0s-0.1,0-0.2,0
			c0,0-0.1,0-0.2,0c-0.1,0-0.2,0-0.2,0h-0.1l-8.3,1.7L149,7.8l-11,2.3c-2.8,0.6-5.7,0.8-8.5,0.7l-5.3-0.2c-5-0.2-10,0.7-14.6,2.6
			l-24.5,9.9c-3.3,1.3-6.8,2.2-10.3,2.5c-3.1,0.3-6.1,0.1-9.2-0.4l-0.5-0.1l1-5.9l-6-3.2l1.3-7.3L0,0v74.6L36.2,81l1.3-7.3l18.3,3.2
			l1-5.9c3.3,0.7,6.4,1.8,9.4,3.3l15.5,8c2.9,1.5,5.9,2.7,9.1,3.5l33.9,8.9c1.7,0.5,3.5,0.8,5.3,1.1l43.1,5.9
			c2.7,0.4,5.3-1.5,5.7-4.2l0.1-0.4c0.5-2.7-1.3-5.3-3.9-5.9l-7.2-1.6l-27.7-6.1c0.1-0.4,0.5-0.7,0.9-0.7l22.2,3.3l6.4,1l25.5,3.8
			c0.7,0.1,1.3,0.1,2,0c2.6-0.5,4.6-2.5,5.1-5.1v-0.2c0.6-3.3-1.6-6.6-5-7.2l-18.3-3.5l-4.1-0.8l-23.3-4.5c0.1-0.5,0.6-0.9,1.2-0.8
			l19,3.1l3.6,0.6l29.6,4.8c0.6,0.1,1.2,0.1,1.8,0c2.9-0.3,5.3-2.6,5.8-5.5v-0.2l0,0C213.2,68,210.8,64.6,207.2,63.9z"/>
	</g>
	<g id="Group_38276" transform="translate(78.284 12.12)">
		<rect id="Rectangle_4760" x="36" y="42" class="st10" width="216" height="252"/>
		<path id="Path_13930" class="st11" d="M162,42v10.8l-1-0.4l-0.8,0.4l-1-0.6l-1.9,0.7l-0.8-1.4l-2.5,1.2l-1.5-0.8l-2.7,1.2l-2-1
			l-2.2,0.6l-1.5-1.4l-2.6,1.5l-2.2-1l-1.9,1.6l-2.1-1.3l-2.5,1l-1.5-0.9l-1.6,0.8l-0.9-1.2l-2.7,1.6V42H162z"/>
		<path id="Path_13931" class="st12" d="M36,294L0,252V0l36,42V294z"/>
		<path id="Path_13932" class="st13" d="M36,294L0,252V0l36,42V294z"/>
		<path id="Path_13933" class="st12" d="M216,0l36,42H36L0,0H216z"/>
		<path id="Path_13934" class="st14" d="M216,0l36,42H36L0,0H216z"/>
		<path id="Path_13935" class="st11" d="M126,42L90,0h36l36,42H126z"/>
	</g>
	<g id="Group_38285" transform="translate(20.818 179.896)">
		<g id="Group_38283" transform="translate(0 11.432)">
			<path id="Path_13938" class="st5" d="M245.3,66L245.3,66v0.2c-0.5,2.9-2.9,5.1-5.8,5.5c-0.6,0.1-1.2,0.1-1.8,0l-29.6-4.8
				l-3.6-0.6l-19-3.1c-0.5-0.1-1.1,0.3-1.2,0.8l23.3,4.5l4.1,0.8l18.3,3.5c3.3,0.6,5.5,3.8,5,7.2v0.2c-0.5,2.6-2.5,4.6-5.1,5.1
				c-0.7,0.1-1.3,0.1-2,0l-25.5-3.8l-6.4-1l-22.2-3.3c-0.4-0.1-0.8,0.2-0.9,0.7l27.7,6.1l7.2,1.6c2.7,0.6,4.4,3.2,3.9,5.9l-0.1,0.4
				c-0.5,2.7-3,4.5-5.7,4.2l-43.1-5.9c-1.8-0.2-3.5-0.6-5.3-1.1l-33.9-8.9c-3.2-0.8-6.2-2-9.1-3.5l-15.5-8
				c-3.2-1.7-6.6-2.8-10.2-3.4L0,49.5V2.2l98.2,17.3c3,0.5,6.1,0.7,9.2,0.4c3.5-0.3,7-1.1,10.3-2.5l24.5-9.9
				c4.6-1.9,9.6-2.7,14.6-2.6l5.3,0.2c1.8,0.1,3.6,0,5.4-0.2c1-0.1,2.1-0.3,3.1-0.5l11-2.3l1.9-0.4l8.3-1.7h0.1c0.1,0,0.2,0,0.2,0
				c0.1,0,0.1,0,0.2,0c0.1,0,0.1,0,0.2,0c0.1,0,0.2,0,0.3,0s0.2,0,0.2,0h0.2c0.2,0,0.3,0.1,0.5,0.1c0.1,0,0.2,0,0.2,0.1
				s0.1,0,0.2,0.1c0.1,0.1,0.3,0.1,0.4,0.2s0.3,0.2,0.4,0.2c0.9,0.6,1.6,1.4,1.9,2.4c0.9,3,0.2,6.4-1.9,8.8
				c-0.1,0.1-0.1,0.1-0.2,0.2c-0.4,0.5-0.9,0.9-1.4,1.2l-0.1,0.1c-5.1,3.6-11,6.1-17.1,7.4l-3.8,0.8l-3.6,0.7l-0.3,0.1l-0.7,0.1
				l-1.5,0.3c-0.3,0.1-0.6,0.1-0.9,0.2h-0.1l19.3,6.1c2,0.6,3.9,1.2,5.9,1.7l21.9,5.6l10.3,2.7l11.3,2.9c3,0.8,5,3.8,4.4,6.9
				l-0.1,0.5c-0.1,0.7-0.4,1.4-0.7,2c-1.3,2.2-3.7,3.3-6.2,2.9l-17.2-2.9l-3.8-0.6l-8.5-1.4l-13.4-2.3c-0.7-0.1-1.4,0.4-1.6,1.1
				l15.1,2.9l12,2.3l4.3,0.8l21.6,4.1C243.6,58.9,246,62.4,245.3,66z"/>
			<path id="Path_13939" class="st8" d="M165.5,23l-12.4-3.9c0.5-0.9,15.8,3.2,15.8,3.2S165.8,22.9,165.5,23z"/>
			<g id="Group_38282" transform="translate(181.62)">
				<g id="Group_38277">
					<path id="Path_13940" class="st15" d="M0,2.2l1.9-0.4l8.3-1.7c1.3-0.3,2.6,0.1,3.7,0.9c-0.3,3.3-3.5,6-6.8,6.4
						C7.1,7.4,1.1,7.2,0,2.2z"/>
					<path id="Path_13941" class="st15" d="M2.2,5.7C1.1,4.9,0.3,3.6,0,2.2l1.9-0.4C2.1,3.1,2.3,4.4,2.2,5.7z"/>
				</g>
				<g id="Group_38278" transform="translate(45.383 42.818)">
					<path id="Path_13942" class="st15" d="M0.1,4.2c-0.7,4,3.6,5.8,3.6,5.8c2.9,0.7,6.5-0.8,7.1-3.9S8.3,0.3,5.4,0
						C5.4,0,0.8,0.3,0.1,4.2z"/>
					<path id="Path_13943" class="st15" d="M0.7,7.5c-1.2-2-0.7-4.6,1.1-6.1c0.1,1,0,2.1-0.2,3.1S1.1,6.5,0.7,7.5z"/>
				</g>
				<g id="Group_38279" transform="translate(51.202 59.259)">
					<path id="Path_13944" class="st15" d="M0.1,4.6C-0.7,8.9,4,10.9,4,10.9c3.1,0.8,7.1-0.9,7.7-4.3S9.1,0.3,5.9,0
						C5.9,0,0.8,0.3,0.1,4.6z"/>
					<path id="Path_13945" class="st15" d="M0.7,8.1c-1.3-2.2-0.8-5,1.2-6.6C2,3.8,1.6,6,0.7,8.1z"/>
				</g>
				<g id="Group_38280" transform="translate(41.718 73.834)">
					<path id="Path_13946" class="st15" d="M0.1,4.2c-0.7,4,3.6,5.8,3.6,5.8c2.9,0.7,6.5-0.8,7.1-3.9S8.3,0.3,5.4,0
						C5.4,0,0.8,0.3,0.1,4.2z"/>
					<path id="Path_13947" class="st15" d="M0.7,7.5c-1.2-2-0.7-4.6,1.1-6C1.8,3.5,1.5,5.5,0.7,7.5z"/>
				</g>
				<g id="Group_38281" transform="translate(20.789 86.734)">
					<path id="Path_13948" class="st15" d="M0.1,3.3c-0.5,3.1,2.8,4.5,2.8,4.5C5.1,8.4,8,7.1,8.4,4.7S6.5,0.2,4.2,0
						C4.2,0,0.6,0.2,0.1,3.3z"/>
					<path id="Path_13949" class="st15" d="M0.5,5.8C0.1,5.1-0.1,4.2,0.1,3.3c0.1-0.9,0.6-1.7,1.3-2.2c0,0.8,0,1.6-0.2,2.4
						C1.1,4.3,0.8,5.1,0.5,5.8z"/>
				</g>
			</g>
		</g>
		<g id="Group_38284">
			<path id="Path_13950" class="st16" d="M81.8,14.4L69,86.7L0,74.6V0L81.8,14.4z"/>
			<path id="Path_13951" class="st7" d="M49.8,75.2c-2.2-0.4-3.6-2.5-3.2-4.6c0.4-2.2,2.5-3.6,4.6-3.2c2.2,0.4,3.6,2.5,3.2,4.6l0,0
				C54.1,74.1,52,75.6,49.8,75.2z"/>
			
				<rect id="Rectangle_4761" x="55.2" y="43" transform="matrix(0.1736 -0.9848 0.9848 0.1736 18.3875 126.3452)" class="st7" width="58.6" height="18.5"/>
		</g>
	</g>
</g>
<g>
	<path class="st7" d="M137.8,130.2c-0.1,0.7-1.4,10-1.6,10.8h3c0.1-0.7,1.4-10,1.5-10.8H137.8z"/>
	<path class="st7" d="M162.2,130.2c-0.1,0.7-1.4,10-1.6,10.8h7c0.1-0.5,0.2-1.7,0.3-2.3h-4.2l0.3-2h3.8c0.1-0.5,0.2-1.6,0.3-2.2
		h-3.8l0.3-2h4.1c0.1-0.5,0.3-1.7,0.3-2.3H162.2z"/>
	<path class="st7" d="M129,136.4c0,0,2.5-5.7,2.7-6.2h3.7c0,0.8-0.5,10-0.5,10.8h-2.7l0.4-7.6c0,0-3,7.1-3.2,7.6h-2.1l-1-7.6
		c-0.1,0.3-1.1,5.4-1.6,7.6H122c0.3-1,2.3-10.3,2.5-10.8h3.6L129,136.4z"/>
	<path class="st7" d="M154.4,136.6l1.7-4l0.6,4H154.4z M156.9,138.8c0,0,0.2,1.8,0.3,2.2h2.9c-0.2-0.9-1.7-10.2-1.8-10.8h-3.6
		c-0.2,0.5-4.3,9.8-4.8,10.8h2.9c0.2-0.4,0.9-2.2,0.9-2.2H156.9z"/>
	<path class="st7" d="M144.9,132.2h0.7c0.5,0,1,0,1.3,0.4c0.2,0.3,0.3,0.6,0.2,1.1c0,0-0.1,0.8-0.6,1.1c0,0-0.4,0.2-1,0.3h-1.3
		l2.5,5.9h2.9l-2.2-4.6c1.3-0.2,2.4-0.6,2.6-2.7c0-0.3,0.1-0.5,0.1-0.7c0-0.8-0.2-1.4-0.6-1.8c-0.7-0.8-2-1-2.9-1h-4.1
		c-0.1,0.7-1.4,9.9-1.6,10.8h2.7C143.8,140.4,144.9,132.2,144.9,132.2"/>
	<path class="st7" d="M228.4,116.3c-1.7,7.2-8,11.1-11.6,13.2l-0.2-0.2c1.5-1.2,6.7-5,8.3-11.3L228.4,116.3z"/>
	<path class="st7" d="M196.1,134.4l-0.8-0.4l0,0l0,0c-0.3-0.1-0.8-0.5-0.8-1.1c0-0.3,0.1-0.5,0.3-0.7s0.6-0.3,1-0.2
		c0.5,0.1,1.1,0.4,1.7,1c0.3-0.6,0.9-1.7,1.1-2.1c-0.7-0.6-1.5-0.9-2.5-1.1c-1.3-0.2-2.6,0.1-3.5,0.8c-0.8,0.6-1.2,1.4-1.3,2.4
		c0,0.2,0,0.3,0,0.5c0,0.6,0.1,1,0.4,1.5c1.6,0,3.3-0.1,5-0.3C196.5,134.6,196.3,134.5,196.1,134.4"/>
	<path class="st7" d="M208.2,130.2c-0.1,0.5-0.3,1.9-0.4,2.6c2.1-0.6,4.6-1.4,7-2.6H208.2z"/>
	<path class="st7" d="M209.3,132.9L209.3,132.9c-0.3,0.1-0.6,0.2-0.9,0.3c-0.1,0-0.1,0-0.2,0.1c-0.1,0-0.3,0.1-0.4,0.1
		c-0.1,0-0.1,0-0.2,0.1c-0.4,0.1-0.9,0.3-1.3,0.4c-0.1,0-0.2,0-0.3,0.1c-0.1,0-0.3,0.1-0.4,0.1c-0.1,0-0.2,0-0.3,0.1
		c-0.1,0-0.3,0.1-0.4,0.1c-0.1,0-0.2,0.1-0.4,0.1c-0.2,0.1-0.4,0.1-0.6,0.2c-0.1,0-0.2,0.1-0.4,0.1c-0.1,0-0.1,0-0.2,0l0,0
		c-1.2,0.3-2.5,0.5-3.9,0.8h-0.1c-0.2,0-0.5,0.1-0.8,0.1c-0.1,0-0.1,0-0.2,0c-0.3,0-0.5,0.1-0.8,0.1c0,0,0,0-0.1,0l0,0
		c-1.5,0.2-3,0.4-4.7,0.5l0,0c-0.2,0-0.5,0-0.8,0.1h-0.1c-0.3,0-0.5,0-0.8,0.1h-0.1c-0.3,0-0.5,0-0.8,0c0,0,0,0-0.1,0
		c-0.3,0-0.5,0-0.8,0l0,0c-1.4,0.1-2.8,0.1-4.3,0.1l0,0h-0.1c-0.3,0-0.7,0-1,0c-0.1,0-0.1,0-0.2,0c-1.2,0-2.4-0.1-3.6-0.1l0,0l0,0
		c-1.9-0.1-3.8-0.3-5.8-0.5l2.3-2.2c0,0,1.3,0.4,3.2,0.7c-0.4-2.1-0.7-3.9-0.7-4.2h-3.6c-0.2,0.5-4.3,9.8-4.8,10.8h2.9
		c0.2-0.4,1.1-2.7,1.1-2.7h3c0,0,0.3,2.3,0.4,2.7h2.9c-0.1-0.3-0.3-2-0.7-3.9c2,0.1,4.1,0.1,6,0.1c0.1,0.2,0.1,0.3,0.1,0.5
		c0,0.1,0,0.1,0,0.2c0,0.2-0.2,0.4-0.4,0.6c-0.4,0.3-1,0.2-1.3,0.1c-0.9-0.2-1.7-0.9-2.3-1.4c-0.4,0.6-1.2,1.9-1.4,2.3
		c1.1,1,2.3,1.6,3.5,1.8c1.3,0.2,2.5-0.1,3.4-0.8c0.8-0.6,1.3-1.5,1.5-2.5c0-0.3,0.1-0.6,0.1-0.9c2-0.1,3.7-0.2,4.8-0.3
		c0.4,0.3,0.5,0.6,0.5,0.9c0,0.1,0,0.1,0,0.2c0,0.2-0.2,0.4-0.4,0.6c-0.4,0.3-1,0.2-1.3,0.1c-0.9-0.2-1.7-0.9-2.2-1.4
		c-0.4,0.6-1.2,1.9-1.4,2.3c1.1,1,2.3,1.6,3.5,1.8c1.3,0.2,2.5-0.1,3.4-0.8c0.8-0.6,1.3-1.5,1.5-2.5c0.1-0.6,0.1-1.1-0.1-1.6
		c0.5-0.1,0.9-0.1,1.3-0.2c-0.3,2.3-0.6,4.4-0.7,4.8h7c0.1-0.5,0.2-1.7,0.3-2.3h-4.2l0.3-2h3.8c0.1-0.4,0.2-1.4,0.3-2
		c0.5-0.2,0.8-0.3,0.8-0.3s1.3-0.4,3-1c-0.2,1.7-1,6.9-1.1,7.6h3c0.1-0.6,1.2-8.1,1.2-8.1h2.2c0.1-0.5,0.3-2,0.4-2.6
		C214.5,130.9,212.4,131.8,209.3,132.9"/>
	<path class="st7" d="M188.6,135c-0.3-0.2-0.6-0.4-0.9-0.5l-0.8-0.4l0,0l0,0c-0.3-0.1-0.8-0.5-0.8-1.1c0-0.3,0.1-0.5,0.3-0.7
		c0.3-0.2,0.6-0.3,1-0.2c0.5,0.1,1.1,0.4,1.7,1c0.3-0.6,0.9-1.7,1.1-2.1c-0.7-0.6-1.5-0.9-2.5-1.1c-1.3-0.2-2.6,0.1-3.5,0.8
		c-0.8,0.6-1.2,1.4-1.3,2.4c0,0.2,0,0.3,0,0.5c0,0.5,0.1,0.9,0.3,1.3c0.1,0,0.1,0,0.2,0C184.6,134.9,186.4,134.9,188.6,135"/>
	<path class="st7" d="M202.7,132.5h4.1c0.1-0.5,0.2-1.7,0.3-2.3h-6.9c0,0.3-0.3,2.1-0.6,4.2c0.9-0.1,1.9-0.3,2.8-0.4L202.7,132.5z"
		/>
	<polygon class="st7" points="265.2,136.2 265.7,135.7 268.5,132.7 266.6,132.7 263.1,136.4 263.1,129.2 261.7,129.2 261.7,141 
		263.1,141 263.1,138.4 264.1,137.3 266.8,141 268.7,141 	"/>
	<path class="st7" d="M227.6,136.6c-0.2-0.4-0.6-0.7-1-1s-1-0.5-1.6-0.8c-0.6-0.2-1-0.4-1.3-0.6c-0.3-0.2-0.6-0.4-0.7-0.6
		c-0.2-0.2-0.2-0.5-0.2-0.8s0.1-0.5,0.2-0.8c0.1-0.2,0.3-0.4,0.6-0.5s0.6-0.2,1-0.2c0.5,0,0.9,0.1,1.3,0.2h0.1
		c0.2,0,0.3,0.1,0.5,0.2h0.1c0.2,0.1,0.3,0.1,0.5,0.2c0.2,0.1,0.4,0.2,0.6,0.3v-1.6l0,0c-0.5-0.2-0.9-0.4-1.5-0.5
		c-0.5-0.1-1.1-0.2-1.7-0.2c-0.7,0-1.3,0.1-1.9,0.3c-0.5,0.2-1,0.6-1.3,1s-0.5,1-0.5,1.6c0,0.5,0.1,0.9,0.2,1.2
		c0.1,0.3,0.3,0.6,0.6,0.9c0.3,0.3,0.5,0.5,0.9,0.7c0.3,0.2,0.7,0.4,1.1,0.5c0.6,0.2,1.1,0.4,1.4,0.6c0.4,0.2,0.6,0.4,0.8,0.6
		c0.2,0.2,0.3,0.5,0.3,0.9c0,0.3-0.1,0.6-0.2,0.8c-0.2,0.2-0.4,0.4-0.7,0.6c-0.3,0.1-0.7,0.2-1.2,0.2c-0.6,0-1.1-0.1-1.7-0.2
		c-0.6-0.1-1-0.3-1.5-0.5v1.6c0.2,0.1,0.5,0.2,0.8,0.3s0.7,0.1,1,0.2c0.4,0,0.8,0.1,1.2,0.1c0.8,0,1.5-0.1,2.1-0.4
		c0.6-0.3,1.1-0.6,1.4-1.1c0.3-0.5,0.5-1,0.5-1.7C228,137.4,227.9,136.9,227.6,136.6"/>
	<path class="st7" d="M242.3,132.5c-0.5,0-1.1,0.1-1.6,0.3c-0.5,0.1-1,0.3-1.4,0.5v1.3c0.6-0.4,1.5-0.7,1.5-0.7
		c0.4-0.1,1-0.3,1.4-0.3c0.6,0,1,0.2,1.3,0.5s0.4,0.8,0.4,1.4v0.5l-1.4,0.1c-2.7,0.1-4,1-4,2.7c0,0.8,0.2,1.4,0.7,1.8
		c0.5,0.4,1.1,0.6,1.9,0.6c0.6,0,1.1-0.1,1.6-0.3c0.4-0.2,0.8-0.4,1.2-0.9v1h0.4h1v-1.6v-4.1c0-1-0.2-1.7-0.7-2.1
		C244,132.7,243.3,132.5,242.3,132.5 M243.9,137.7c0,0.8-0.2,1.3-0.7,1.8c-0.4,0.4-1,0.6-1.8,0.6c-0.5,0-0.9-0.1-1.1-0.4
		c-0.3-0.2-0.4-0.6-0.4-1c0-0.6,0.2-1,0.7-1.3c0.4-0.3,1.1-0.4,2.1-0.5l1.2-0.1V137.7z"/>
	<path class="st7" d="M282.7,132.5c-0.5,0-1.1,0.1-1.6,0.3c-0.5,0.1-1,0.3-1.4,0.5v1.3c0.6-0.4,1.5-0.7,1.5-0.7
		c0.4-0.1,1-0.3,1.4-0.3c0.6,0,1,0.2,1.3,0.5s0.4,0.8,0.4,1.4v0.5l-1.4,0.1c-2.7,0.1-4,1-4,2.7c0,0.8,0.2,1.4,0.7,1.8
		c0.5,0.4,1.1,0.6,1.9,0.6c0.6,0,1.1-0.1,1.6-0.3c0.4-0.2,0.8-0.4,1.2-0.9v1h0.4h1v-1.6v-4.1c0-1-0.2-1.7-0.7-2.1
		C284.4,132.7,283.7,132.5,282.7,132.5 M284.3,137.7c0,0.8-0.2,1.3-0.7,1.8c-0.4,0.4-1,0.6-1.8,0.6c-0.5,0-0.9-0.1-1.1-0.4
		c-0.3-0.2-0.4-0.6-0.4-1c0-0.6,0.2-1,0.7-1.3c0.4-0.3,1.1-0.4,2.1-0.5l1.2-0.1L284.3,137.7L284.3,137.7z"/>
	<path class="st7" d="M294,133.2c-0.5-0.5-1.3-0.7-2.3-0.7c-0.6,0-1.1,0.1-1.5,0.3c-0.5,0.2-0.8,0.5-1.1,1l0,0v-1.1h-0.3h-1.1v8.4
		h1.4v-4.3c0-1.1,0.2-1.8,0.6-2.3s1-0.7,1.9-0.7c0.6,0,1.1,0.2,1.4,0.5s0.5,0.8,0.5,1.5v5.3h1.4v-5.4
		C294.7,134.5,294.5,133.7,294,133.2"/>
	<path class="st7" d="M256.5,141.2c-1.3,0-2.2-0.4-3-1.1c-0.7-0.8-1.1-1.8-1.1-3.1s0.3-2.4,1-3.2s1.6-1.2,2.7-1.2s1.9,0.3,2.5,1
		s0.9,1.6,0.9,2.8v0.8h-5.7c0,1,0.3,1.7,0.7,2.2c0.5,0.5,1.1,0.7,1.9,0.7c0.4,0,0.9,0,1.3-0.1s0.9-0.2,1.4-0.5v1.2
		c-0.5,0.2-0.9,0.3-1.3,0.4C257.6,141.1,257.1,141.2,256.5,141.2 M256.2,133.6c-0.7,0-1.2,0.2-1.6,0.6c-0.4,0.4-0.6,1-0.7,1.8h4.3
		c0-0.8-0.2-1.4-0.5-1.8C257.3,133.8,256.8,133.6,256.2,133.6"/>
	<path class="st7" d="M276.3,133.2c-0.5-0.5-1.3-0.7-2.3-0.7c-0.6,0-1.1,0.1-1.5,0.3c-0.5,0.2-0.8,0.5-1.1,1l0,0v-4.5h-0.3H270V141
		h1.4v-4.3c0-1.1,0.2-1.8,0.6-2.3s1-0.7,1.9-0.7c0.6,0,1.1,0.2,1.4,0.5s0.5,0.8,0.5,1.5v5.3h1.4v-5.4
		C277,134.5,276.8,133.7,276.3,133.2"/>
	<path class="st7" d="M252,132.5c-0.2,0-0.5-0.1-0.8-0.1c-0.6,0-1.1,0.1-1.5,0.3c-0.5,0.2-0.8,0.5-1.1,1l0,0v-1.1h-0.3h-1.1v8.4h1.4
		v-4.3c0-1.1,0.2-1.8,0.6-2.3c0.4-0.5,1-0.7,1.9-0.7c0.4,0,0.7,0.1,1,0.2"/>
	<path class="st7" d="M235.9,133.2c-0.5-0.5-1.3-0.7-2.3-0.7c-0.6,0-1.1,0.1-1.5,0.3c-0.5,0.2-0.8,0.5-1.1,1l0,0v-4.5h-0.3h-1.1V141
		h1.4v-4.3c0-1.1,0.2-1.8,0.6-2.3c0.4-0.5,1-0.7,1.9-0.7c0.6,0,1.1,0.2,1.4,0.5c0.3,0.3,0.5,0.8,0.5,1.5v5.3h1.4v-5.4
		C236.7,134.5,236.4,133.7,235.9,133.2"/>
	<polygon class="st7" points="265.2,136.2 265.7,135.7 268.5,132.7 266.6,132.7 263.1,136.4 263.1,129.2 261.7,129.2 261.7,141 
		263.1,141 263.1,138.4 264.1,137.3 266.8,141 268.7,141 	"/>
	<path class="st7" d="M227.6,136.6c-0.2-0.4-0.6-0.7-1-1s-1-0.5-1.6-0.8c-0.6-0.2-1-0.4-1.3-0.6c-0.3-0.2-0.6-0.4-0.7-0.6
		c-0.2-0.2-0.2-0.5-0.2-0.8s0.1-0.5,0.2-0.8c0.1-0.2,0.3-0.4,0.6-0.5s0.6-0.2,1-0.2c0.5,0,0.9,0.1,1.3,0.2h0.1
		c0.2,0,0.3,0.1,0.5,0.2h0.1c0.2,0.1,0.3,0.1,0.5,0.2c0.2,0.1,0.4,0.2,0.6,0.3v-1.6l0,0c-0.5-0.2-0.9-0.4-1.5-0.5
		c-0.5-0.1-1.1-0.2-1.7-0.2c-0.7,0-1.3,0.1-1.9,0.3c-0.5,0.2-1,0.6-1.3,1s-0.5,1-0.5,1.6c0,0.5,0.1,0.9,0.2,1.2
		c0.1,0.3,0.3,0.6,0.6,0.9c0.3,0.3,0.5,0.5,0.9,0.7c0.3,0.2,0.7,0.4,1.1,0.5c0.6,0.2,1.1,0.4,1.4,0.6c0.4,0.2,0.6,0.4,0.8,0.6
		c0.2,0.2,0.3,0.5,0.3,0.9c0,0.3-0.1,0.6-0.2,0.8c-0.2,0.2-0.4,0.4-0.7,0.6c-0.3,0.1-0.7,0.2-1.2,0.2c-0.6,0-1.1-0.1-1.7-0.2
		c-0.6-0.1-1-0.3-1.5-0.5v1.6c0.2,0.1,0.5,0.2,0.8,0.3s0.7,0.1,1,0.2c0.4,0,0.8,0.1,1.2,0.1c0.8,0,1.5-0.1,2.1-0.4
		c0.6-0.3,1.1-0.6,1.4-1.1c0.3-0.5,0.5-1,0.5-1.7C228,137.4,227.9,136.9,227.6,136.6"/>
	<path class="st7" d="M242.3,132.5c-0.5,0-1.1,0.1-1.6,0.3c-0.5,0.1-1,0.3-1.4,0.5v1.3c0.6-0.4,1.5-0.7,1.5-0.7
		c0.4-0.1,1-0.3,1.4-0.3c0.6,0,1,0.2,1.3,0.5s0.4,0.8,0.4,1.4v0.5l-1.4,0.1c-2.7,0.1-4,1-4,2.7c0,0.8,0.2,1.4,0.7,1.8
		c0.5,0.4,1.1,0.6,1.9,0.6c0.6,0,1.1-0.1,1.6-0.3c0.4-0.2,0.8-0.4,1.2-0.9v1h0.4h1v-1.6v-4.1c0-1-0.2-1.7-0.7-2.1
		C244,132.7,243.3,132.5,242.3,132.5 M243.9,137.7c0,0.8-0.2,1.3-0.7,1.8c-0.4,0.4-1,0.6-1.8,0.6c-0.5,0-0.9-0.1-1.1-0.4
		c-0.3-0.2-0.4-0.6-0.4-1c0-0.6,0.2-1,0.7-1.3c0.4-0.3,1.1-0.4,2.1-0.5l1.2-0.1V137.7z"/>
	<path class="st7" d="M282.7,132.5c-0.5,0-1.1,0.1-1.6,0.3c-0.5,0.1-1,0.3-1.4,0.5v1.3c0.6-0.4,1.5-0.7,1.5-0.7
		c0.4-0.1,1-0.3,1.4-0.3c0.6,0,1,0.2,1.3,0.5s0.4,0.8,0.4,1.4v0.5l-1.4,0.1c-2.7,0.1-4,1-4,2.7c0,0.8,0.2,1.4,0.7,1.8
		c0.5,0.4,1.1,0.6,1.9,0.6c0.6,0,1.1-0.1,1.6-0.3c0.4-0.2,0.8-0.4,1.2-0.9v1h0.4h1v-1.6v-4.1c0-1-0.2-1.7-0.7-2.1
		C284.4,132.7,283.7,132.5,282.7,132.5 M284.3,137.7c0,0.8-0.2,1.3-0.7,1.8c-0.4,0.4-1,0.6-1.8,0.6c-0.5,0-0.9-0.1-1.1-0.4
		c-0.3-0.2-0.4-0.6-0.4-1c0-0.6,0.2-1,0.7-1.3c0.4-0.3,1.1-0.4,2.1-0.5l1.2-0.1L284.3,137.7L284.3,137.7z"/>
	<path class="st7" d="M294,133.2c-0.5-0.5-1.3-0.7-2.3-0.7c-0.6,0-1.1,0.1-1.5,0.3c-0.5,0.2-0.8,0.5-1.1,1l0,0v-1.1h-0.3h-1.1v8.4
		h1.4v-4.3c0-1.1,0.2-1.8,0.6-2.3s1-0.7,1.9-0.7c0.6,0,1.1,0.2,1.4,0.5s0.5,0.8,0.5,1.5v5.3h1.4v-5.4
		C294.7,134.5,294.5,133.7,294,133.2"/>
	<path class="st7" d="M256.5,141.2c-1.3,0-2.2-0.4-3-1.1c-0.7-0.8-1.1-1.8-1.1-3.1s0.3-2.4,1-3.2s1.6-1.2,2.7-1.2s1.9,0.3,2.5,1
		s0.9,1.6,0.9,2.8v0.8h-5.7c0,1,0.3,1.7,0.7,2.2c0.5,0.5,1.1,0.7,1.9,0.7c0.4,0,0.9,0,1.3-0.1s0.9-0.2,1.4-0.5v1.2
		c-0.5,0.2-0.9,0.3-1.3,0.4C257.6,141.1,257.1,141.2,256.5,141.2 M256.2,133.6c-0.7,0-1.2,0.2-1.6,0.6c-0.4,0.4-0.6,1-0.7,1.8h4.3
		c0-0.8-0.2-1.4-0.5-1.8C257.3,133.8,256.8,133.6,256.2,133.6"/>
	<path class="st7" d="M276.3,133.2c-0.5-0.5-1.3-0.7-2.3-0.7c-0.6,0-1.1,0.1-1.5,0.3c-0.5,0.2-0.8,0.5-1.1,1l0,0v-4.5h-0.3H270V141
		h1.4v-4.3c0-1.1,0.2-1.8,0.6-2.3s1-0.7,1.9-0.7c0.6,0,1.1,0.2,1.4,0.5s0.5,0.8,0.5,1.5v5.3h1.4v-5.4
		C277,134.5,276.8,133.7,276.3,133.2"/>
	<path class="st7" d="M252,132.5c-0.2,0-0.5-0.1-0.8-0.1c-0.6,0-1.1,0.1-1.5,0.3c-0.5,0.2-0.8,0.5-1.1,1l0,0v-1.1h-0.3h-1.1v8.4h1.4
		v-4.3c0-1.1,0.2-1.8,0.6-2.3c0.4-0.5,1-0.7,1.9-0.7c0.4,0,0.7,0.1,1,0.2"/>
	<path class="st7" d="M235.9,133.2c-0.5-0.5-1.3-0.7-2.3-0.7c-0.6,0-1.1,0.1-1.5,0.3c-0.5,0.2-0.8,0.5-1.1,1l0,0v-4.5h-0.3h-1.1V141
		h1.4v-4.3c0-1.1,0.2-1.8,0.6-2.3c0.4-0.5,1-0.7,1.9-0.7c0.6,0,1.1,0.2,1.4,0.5c0.3,0.3,0.5,0.8,0.5,1.5v5.3h1.4v-5.4
		C236.7,134.5,236.4,133.7,235.9,133.2"/>
</g>
</svg>
