<?xml version="1.0" encoding="utf-8"?>
<!-- Generator: Adobe Illustrator 26.0.0, SVG Export Plug-In . SVG Version: 6.00 Build 0)  -->
<svg version="1.1" id="Layer_1" xmlns="http://www.w3.org/2000/svg" xmlns:xlink="http://www.w3.org/1999/xlink" x="0px" y="0px"
	 viewBox="0 0 342 228.9" style="enable-background:new 0 0 342 228.9;" xml:space="preserve">
<style type="text/css">
	.st0{fill:#B8BABC;}
	.st1{fill:#E1E3E3;}
	.st2{opacity:0.7;fill:none;stroke:#FFC55E;stroke-miterlimit:10;enable-background:new    ;}
	.st3{fill:none;stroke:#FFFFFF;stroke-miterlimit:10;}
	.st4{fill:#323232;}
	.st5{fill:#ACACAC;}
	.st6{fill:#FFFFFF;}
	.st7{fill:#747575;}
	.st8{fill:#BCBCBC;}
	.st9{fill:#F58220;}
	.st10{fill:#969696;}
	.st11{fill:#F58221;}
	.st12{fill:#15447E;}
	.st13{fill:#5D5E5E;}
	.st14{fill:#C0C4C2;}
	.st15{fill:#A7AAA9;}
	.st16{fill:#555555;}
	.st17{fill:#747474;}
	.st18{fill:#404241;}
	.st19{fill:#7E7E7E;}
	.st20{fill:#6B6A68;}
	.st21{fill:#444444;}
	.st22{fill:#2C2D2D;}
	.st23{fill:#492711;}
	.st24{fill:#C5C5C5;}
	.st25{fill:#DCDCDC;}
	.st26{fill:#383838;}
	.st27{fill:#C2C2C2;}
	.st28{fill:none;stroke:#DDB6C0;stroke-miterlimit:10;}
	.st29{fill:#FDC8A8;}
	.st30{fill:#777778;}
	.st31{opacity:9.000000e-02;fill:#929292;enable-background:new    ;}
	.st32{opacity:0.16;fill:#929292;enable-background:new    ;}
	.st33{fill:#D6D6D6;}
	.st34{opacity:0.9;}
	.st35{fill:#B5CEE5;}
	.st36{fill:#74ECF3;}
	.st37{fill:#A5C6E5;}
	.st38{fill:#605F5F;}
	.st39{fill:#6D6C6C;}
	.st40{fill:#364254;}
</style>
<g transform="translate(-140 -187)">
	<path class="st0" d="M371.1,404.5c-2.6,0.3-1.1,4.7,47.5,3.4c3.3-0.1,9,1.3,12.7,1c25.9-2.1,50.7,0.5,50.7-3.7
		c0-3.6-45.2-8.7-64-3.9C410.3,403.3,377.3,403.9,371.1,404.5z"/>
	<g transform="translate(227.109 -429.379)">
		<g>
			<g transform="translate(-87.109 616.379)">
				<path class="st1" d="M4.1,207.3H342c-12.5-23.1-51.2-50.8-50.7-89.2c0.7-48.1,34.5-69.7,30.5-88.5
					c-15.6-72.7-92.5,21.6-184.7-16.5C0.9-43.1,47.4,97.5,16.7,129.1C-14.4,161.1,8.3,161.7,4.1,207.3z"/>
			</g>
		</g>
	</g>
	<line class="st2" x1="296.8" y1="294.6" x2="296.8" y2="357.9"/>
	<line class="st2" x1="406.1" y1="296.2" x2="406.1" y2="362.1"/>
	<line class="st3" x1="317.7" y1="354.7" x2="317.7" y2="393.2"/>
	<rect x="205.2" y="214.3" class="st4" width="233.5" height="143"/>
	<rect x="199.4" y="214.3" class="st5" width="233.5" height="143"/>
	<rect x="210.1" y="218.5" class="st6" width="212.2" height="130"/>
	<path class="st5" d="M324.7,389.1h-28.4l5.7-31.8h28.4L324.7,389.1z"/>
	<path class="st7" d="M328.3,357.3H302l-5.5,30.3C306.4,376.8,318.7,368.3,328.3,357.3z"/>
	<path class="st7" d="M309,389.1h15.7l3.1-17C321.5,377.8,314.9,383.2,309,389.1z"/>
	<path class="st5" d="M356.7,394.4c-1.5-6.2-21.4-11-45.6-11s-44.1,4.9-45.6,11H356.7z"/>
	<path class="st8" d="M412.3,311.7c0,0.4-0.3,0.7-0.7,0.6l0,0c-15.2-0.1-30.3,0-45.5,0.2c-0.4,0-0.7-0.3-0.8-0.6l0,0
		c0-0.4,0.3-0.7,0.7-0.7l0,0c15.2-0.2,30.3-0.3,45.5-0.2C411.9,311.1,412.3,311.4,412.3,311.7L412.3,311.7z"/>
	<path class="st8" d="M412.2,307.6c0,0.4-0.3,0.7-0.7,0.6l0,0c-15.2-0.1-30.3,0-45.4,0.2c-0.4,0-0.7-0.3-0.8-0.6l0,0
		c0-0.4,0.3-0.7,0.7-0.7l0,0c15.1-0.2,30.3-0.3,45.4-0.2C411.8,306.9,412.2,307.2,412.2,307.6L412.2,307.6z"/>
	<path class="st8" d="M412.4,315.9c0,0.4-0.3,0.7-0.7,0.6l0,0c-15.2,0-30.3,0.1-45.5,0.3c-0.4,0-0.7-0.3-0.8-0.6l0,0l0,0
		c0-0.4,0.3-0.7,0.7-0.7l0,0c15.2-0.2,30.3-0.3,45.5-0.3C412,315.3,412.3,315.6,412.4,315.9L412.4,315.9z"/>
	<path class="st8" d="M412.5,320.1c0,0.4-0.3,0.7-0.7,0.6l0,0c-15.2,0-30.3,0.1-45.5,0.3c-0.4,0-0.7-0.3-0.8-0.6l0,0l0,0
		c0-0.4,0.4-0.7,0.7-0.7c15.2-0.2,30.3-0.3,45.5-0.3C412.1,319.5,412.4,319.8,412.5,320.1L412.5,320.1z"/>
	<path class="st8" d="M412.5,324.3c0,0.4-0.3,0.7-0.7,0.6l0,0c-15.2,0-30.3,0.1-45.5,0.3c-0.4,0-0.7-0.3-0.8-0.6l0,0
		c0-0.4,0.3-0.7,0.7-0.7l0,0c15.2-0.2,30.3-0.3,45.5-0.3C412.2,323.7,412.5,323.9,412.5,324.3L412.5,324.3z"/>
	<path class="st8" d="M387.5,330.2c0,0.4-0.4,0.7-0.7,0.6l0,0c-6.8-0.1-13.7-0.2-20.5-0.2c-0.4,0-0.7-0.3-0.7-0.7l0,0
		c0-0.4,0.4-0.7,0.7-0.6c6.8,0.1,13.7,0.1,20.5,0.2C387.1,329.5,387.4,329.8,387.5,330.2L387.5,330.2z"/>
	<path class="st9" d="M331.8,308.4c0,0.7-0.5,1.3-1.2,1.3h-0.1c-9.1-0.1-18.1-0.1-27.2,0c-0.7,0-1.3-0.6-1.4-1.3l0,0
		c0-0.7,0.5-1.3,1.2-1.3c0,0,0,0,0.1,0c9.1-0.1,18.1-0.1,27.2,0C331.1,307,331.7,307.6,331.8,308.4L331.8,308.4z"/>
	<path class="st9" d="M349.1,313.9c0,0.7-0.5,1.2-1.1,1.3h-0.1c-15-0.5-29.9-0.6-44.9-0.5c-0.7,0-1.3-0.6-1.4-1.3l0,0
		c0-0.7,0.5-1.3,1.2-1.3c0,0,0,0,0.1,0c15-0.1,29.9,0,44.9,0.4C348.5,312.5,349.1,313.1,349.1,313.9L349.1,313.9z"/>
	<path class="st8" d="M348.9,325c0,0.4-0.3,0.6-0.6,0.6h-0.1c-15.2-0.6-30.5-0.7-45.7-0.6c-0.4,0-0.7-0.2-0.8-0.6l0,0
		c0-0.4,0.3-0.7,0.7-0.7l0,0c15.3-0.2,30.5,0,45.7,0.6C348.5,324.3,348.9,324.6,348.9,325L348.9,325z"/>
	<path class="st8" d="M348.7,320c0,0.4-0.3,0.6-0.7,0.6c0,0,0,0-0.1,0c-15.3-0.5-30.5-0.7-45.8-0.5c-0.4,0-0.7-0.3-0.8-0.6l0,0
		c0-0.4,0.3-0.7,0.7-0.7l0,0c15.3-0.2,30.5,0,45.8,0.5C348.3,319.3,348.7,319.6,348.7,320L348.7,320z"/>
	<path class="st8" d="M349.1,329.6c0,0.4-0.3,0.6-0.6,0.6h-0.1c-15.2-0.6-30.5-0.8-45.7-0.6c-0.4,0-0.7-0.3-0.8-0.6l0,0
		c0-0.4,0.3-0.7,0.7-0.7l0,0c15.3-0.2,30.5,0,45.7,0.6C348.7,328.9,349.1,329.2,349.1,329.6L349.1,329.6z"/>
	<path class="st8" d="M331.8,333.9c0,0.4-0.3,0.6-0.7,0.6c0,0,0,0-0.1,0c-9.4-0.2-18.7-0.2-28.1-0.1c-0.4,0-0.7-0.3-0.8-0.6l0,0
		c0-0.4,0.3-0.7,0.7-0.7l0,0c9.4-0.1,18.7-0.1,28.1,0.1C331.4,333.2,331.7,333.5,331.8,333.9L331.8,333.9z"/>
	<g transform="translate(224.59 307.223)">
		<g>
			<path class="st10" d="M0,15.6c0.6,8.1,7.5,14.1,15.6,13.6c8.1-0.6,14.1-7.5,13.6-15.6C28.6,5.5,21.6-0.5,13.6,0l1,14.6L0,15.6z"
				/>
		</g>
	</g>
	<g transform="translate(263.451 307.223)">
		<path class="st11" d="M0,26.6c6.6,4.6,15.7,3,20.3-3.6s3-15.7-3.6-20.3c-2.7-2-6-2.9-9.3-2.7l1,14.6L0,26.6z"/>
	</g>
	<rect x="220.1" y="253.9" class="st10" width="14.6" height="38.9"/>
	<rect x="240.1" y="245.4" class="st12" width="14.6" height="47.4"/>
	<rect x="260" y="270.6" class="st10" width="14.6" height="22.3"/>
	<rect x="279.9" y="275.6" class="st12" width="14.6" height="17.2"/>
	<path class="st13" d="M234.5,298.7c0,0.3-0.3,0.6-0.6,0.6h-13.3c-0.3,0-0.6-0.3-0.6-0.6l0,0c0-0.3,0.3-0.6,0.6-0.6l0,0h13.3
		C234.3,298.1,234.5,298.4,234.5,298.7L234.5,298.7z"/>
	<path class="st13" d="M254.5,298.7c0,0.3-0.3,0.6-0.6,0.6h-13.3c-0.3,0-0.6-0.3-0.6-0.6l0,0l0,0c0-0.3,0.3-0.6,0.6-0.6h13.3
		C254.2,298.1,254.5,298.4,254.5,298.7L254.5,298.7L254.5,298.7z"/>
	<path class="st13" d="M274.5,298.7c0,0.3-0.3,0.6-0.6,0.6h-13.3c-0.3,0-0.6-0.3-0.6-0.6l0,0c0-0.3,0.3-0.6,0.6-0.6h13.3
		C274.2,298.1,274.5,298.4,274.5,298.7L274.5,298.7z"/>
	<path class="st13" d="M294.4,298.7c0,0.3-0.3,0.6-0.6,0.6h-13.3c-0.3,0-0.6-0.3-0.6-0.6l0,0c0-0.3,0.3-0.6,0.6-0.6h13.3
		C294.2,298.2,294.4,298.4,294.4,298.7L294.4,298.7z"/>
	<path class="st9" d="M412.4,238.7c-9.3,0-3.7,12.1-33.6,15.9c-13.5,1.7-12.9,16.5-22.2,16.5s-13.5-2.9-19.3-1.3
		c-9,2.5-8.6,7.8-17.9,7.8c-7.4,0-11.7-9.4-17.4-12v33.7h110.5L412.4,238.7z"/>
	<path class="st13" d="M412.4,299.2c0-14.9,0-53.3,0-53.3c-9.3,0-5,30.4-33.6,26.7c-9.2-1.2-12.9,12.9-22.2,12.9s-11.2-7.1-19.3-3.5
		c-8.5,3.8-8.6,10.7-17.9,10.7c-7.4,0-11.7-10.9-17.4-13.5v20H412.4z"/>
	<path class="st0" d="M140.8,411.5c-2.6,0.3-1.1,4.7,47.5,3.4c3.3-0.1,9,1.3,12.7,1c25.9-2.1,50.7,0.5,50.7-3.7
		c0-3.6-45.2-8.7-64-3.9C180.1,410.3,147,410.9,140.8,411.5z"/>
	<g transform="translate(1887.573 393.941)">
		<path class="st9" d="M-1686.1-92.5c-0.6,2.4-2,10.7-2.6,13.5c-0.1,0.3-0.1,2.5-0.1,5.4l0,0c0,0.9,0,1.8,0,2.8
			c0,3.8,0,8.3-0.2,11.4c-4.2,1.8-8.6,3-13.1,3.4c-4.1,0.6-8.2,0.5-12.2-0.1c-2-0.4-3.9-1.1-5.6-2.1c-1.1-9.4-1.4-18.9-0.8-28.4
			c0.3-7.5,1.9-12.2,3.8-14.7c1.2-1.4,2.7-2.5,4.5-3c1.8-0.6,3.1-1.2,5.3-2c0.8-0.3,1.7-1.1,2.4-1.1c1.3,0.1,2.6,0.2,3.8,0.4
			c2.2,0.9,8.6,1.7,12.4,4.3c1.1,0.7,2,1.8,2.6,3c0.1,0.1,0.1,0.3,0.1,0.4c0.1,0.5,0.2,1.1,0.2,1.6
			C-1685.5-95.9-1685.7-94.2-1686.1-92.5z"/>
		<path class="st14" d="M-1686.1-92.5c-0.6,2.4-2,10.7-2.6,13.5c0,0,1.1-12.7,1.1-15.8c0-2.6-0.2-5.2-0.7-7.8c1.1,0.7,2,1.8,2.6,3
			c0.1,0.1,0.1,0.3,0.1,0.4C-1685.1-97-1686-92.9-1686.1-92.5z"/>
		<path class="st15" d="M-1688.9-59.4c0,1.4-0.1,2.7-0.4,4.1l0,0c-5.8,2.9-12.2,4.3-18.7,4c-3.7-0.2-7.4-1.1-10.7-2.7
			c-0.3-0.2-0.5-0.2-0.5-0.2c-0.2-1.4-0.4-2.7-0.5-4c1.7,1,3.6,1.7,5.6,2.1c4,0.6,8.2,0.7,12.2,0.1
			C-1697.5-56.4-1693.1-57.6-1688.9-59.4z"/>
		<path class="st14" d="M-1715.1-83.4c-1.9-0.1-3.9-1.4-5.5-3.2c0.3-7.5,1.9-12.2,3.8-14.7c1.2-1.4,2.7-2.5,4.5-3
			c0.8,0,1.7,0.9,2.4,1.8c2.6,3.1,3.7,7.3,2.9,11.2C-1707.9-86.7-1711-83.1-1715.1-83.4z"/>
		<path class="st14" d="M-1694.4-82.2c-2.6-3.4-4.8-7-6.8-10.8c-2.4-4.3-4.3-8.7-5.8-13.4c0.7-0.5,1.5-0.9,2.4-1.1
			c1.3,0.1,2.6,0.2,3.8,0.4c2.6,0.4,7.6,1.6,9.2,2.8c1,0.7,1.1,2.5,1.4,4.4c0.2,2.4,0.1,4.9-0.3,7.2
			C-1691.1-88.9-1692.5-85.3-1694.4-82.2z"/>
		<path class="st16" d="M-1694.7-85.9c-0.4-0.5-0.7-1.1-1-1.6c-0.7-1.2-1.8-3.2-3.2-6.2c-2.1-4.5-4.6-10.8-5.7-13.7
			c1.3,0.1,2.6,0.2,3.8,0.4c2.9,1.2,5.2,0.4,7.5,2.7c0.4,1,1.3,1.7,1.3,7.3c0,3-0.6,5.9-1.6,8.7
			C-1694.2-86.8-1694.7-85.9-1694.7-85.9z"/>
		<path class="st17" d="M-1691.6-96.3c-0.1-2.1-0.4-4.3-0.9-6.3c-2.5-9.4-6.8-6.8-7.9-6.6c-1.5,0.5-2.9,1.2-4.2,1.9
			c0,0,1.5,2.9,3,5.8s2.7,5.1,2.7,5.1l3.8-5.5L-1691.6-96.3z"/>
		<path class="st18" d="M-1694.7-85.9c-0.7-1-1.4-2.1-1.9-3.2l1.2-7.1l-1.4-3.3l1.7-2.5l1.7,2.8l-1.2,3.2l1.3,7.1
			C-1693.7-87.9-1694.2-86.9-1694.7-85.9z"/>
		<g transform="translate(-1721.688 -102.487)">
			<g>
				<path class="st13" d="M0.1,13.4c-0.3,6.7,0.3,18.5,7.5,19.8c4.8,0.8,12-1.5,17.6-4.1c0.3-2.9-0.2-5.8-1.5-8.4
					c-2.8,0.3-5.8,0.4-7-0.5c-0.6-0.5-1.2-1.1-1.6-1.8c-1.9-3.1-1.4-7.8-2.7-12.6C11.9,3.9,10-0.4,6.9,0C2.7,0.7,0.2,9.7,0.1,13.4z"
					/>
			</g>
		</g>
		<g transform="translate(-1698.054 -82.713)">
			<path class="st19" d="M7.7,4.8c0,0.3-0.1,0.7-0.2,1C7.4,6,7.3,6.2,7.2,6.4c-1.8,1-3.7,2-5.7,2.9C1.8,6.4,1.3,3.5,0,0.9
				c2.9-0.4,5.5-1,5.8-0.9l0.1,0.1C6,0.2,6.1,0.3,6.2,0.3c0.1,0.1,0.2,0.2,0.3,0.3c0.7,0.9,1.1,2.1,1.2,3.2c0,0.1,0.1,0.3,0.1,0.4
				C7.8,4.4,7.8,4.6,7.7,4.8z"/>
		</g>
		<path class="st13" d="M-1680.9-83.2c-0.1-0.6,0-1.1,0.1-1.6c-0.2,0-0.4-0.2-0.4-0.5c-0.9-4.2-2.4-8.4-4.2-12.3
			c0,1.7-0.2,3.4-0.6,5.1c-0.6,2.4-2,10.7-2.6,13.5c-0.1,0.3-0.1,2.5-0.1,5.4l0,0c0.9,2.2,2.8,4.4,4.5,4.5c2.8,0.2,5.4-2.7,7.1-7.2
			c0.2-0.6,0.5-1.4,0.7-2.2c-0.5-0.1-0.9-0.3-1.4-0.4C-1679.4-79.8-1680.6-81.4-1680.9-83.2z"/>
		<path class="st19" d="M-1678.3-86.2c0,0-1.7,1.5-2.6,1.4c-0.1,0.5-0.2,1.1-0.1,1.6c0.3,1.8,1.5,3.4,3.2,4.2
			c0.4,0.2,0.9,0.3,1.4,0.4c0.4-1.3,0.6-2.7,0.8-4C-1675.4-83.8-1677.4-85.6-1678.3-86.2z"/>
		<path class="st20" d="M-1698.9,18.2c-0.6,0.3-1.9,0.3-4.9-0.5c-2.8-0.8-5.5-3.3-6.9-4.8c-0.2-2.2-0.2-4.3,0-6.5
			c0.7,0.9,2.4,1.1,3.9,0.6l1.1,3.8C-1705.7,10.8-1699.1,15.8-1698.9,18.2z"/>
		<path class="st21" d="M-1700.3,19.4c-5.2,0.5-10.2-5.3-10.2-5.3c-0.1-0.4-0.2-0.8-0.2-1.2c1.4,1.5,4.1,3.9,6.9,4.8
			c3,0.9,4.3,0.8,4.9,0.5C-1698.8,18.8-1699.2,19.3-1700.3,19.4z"/>
		<path class="st20" d="M-1686.7,15.3c-0.8,0.5-2.2,0.5-5.3-0.4c-2-0.5-3.8-1.3-5.6-2.3v-1.9c0-1.6,0.2-4.2,0.4-5.9
			c0.7,0.5,1.6,0.8,2.5,0.7c0.4,0,0.8-0.1,1.2-0.2l0.8,4.1C-1692.7,9.4-1687.1,13.7-1686.7,15.3z"/>
		<path class="st21" d="M-1686.9,15.8c-2.8,2-10.7-2.6-10.7-2.6v-0.6c1.8,1,3.7,1.8,5.6,2.3c3.1,0.9,4.5,0.9,5.3,0.4
			C-1686.6,15.5-1686.7,15.7-1686.9,15.8z"/>
		<g transform="translate(-1718.822 -55.332)">
			<path class="st22" d="M32.3,34.2c-0.3,7.5-4.8,25-4.8,25c-0.5,0.8-1.3,1.3-2.2,1.5c-0.4,0.1-0.8,0.2-1.2,0.2
				c-0.9,0-1.8-0.2-2.5-0.7c-0.2-0.1-0.3-0.2-0.4-0.3c0,0,0-18.1-1-24.3s-3.1-20.7-3.1-20.7s0.3,16.2-0.7,22S14,61,14,61
				s-0.2,0.9-1.9,1.5c-0.1,0-0.1,0-0.2,0.1C10.4,63.1,8.8,62.9,8,62c-0.2-0.2-0.3-0.5-0.4-0.7c-0.4-1.6-4-16.8-4.5-28.8
				C3.1,27,0.7,7.4,0,1.4C3.4,3,7,3.9,10.7,4c6.5,0.3,12.9-1,18.7-4l0,0C30.6,9,32.5,29.2,32.3,34.2z"/>
			<g transform="translate(4.831 4.04)">
				<path class="st21" d="M0.6,5.1L0.3,2.7L0,0.2L1.3,0l0.3,2.5L1.9,5L0.6,5.1z"/>
				<g transform="translate(0.739 6.432)">
					<path class="st21" d="M0.5,5.1c0-0.8-0.1-1.6-0.2-2.5L0,0.2L1.3,0l0.3,2.5C1.7,3.3,1.8,4.1,1.9,5L0.5,5.1z"/>
				</g>
				<g transform="translate(1.431 12.872)">
					<path class="st21" d="M0.5,5.1L0.2,2.6L0,0.2L1.3,0l0.2,2.5L1.8,5L0.5,5.1z"/>
				</g>
				<g transform="translate(2.043 19.327)">
					<path class="st21" d="M0.4,5.1L0.3,3.8L0.2,2.6c0-0.4-0.1-0.8-0.1-1.2L0,0.1L1.3,0l0.1,1.2c0,0.4,0.1,0.8,0.1,1.2l0.1,1.2
						L1.7,5L0.4,5.1z"/>
				</g>
				<g transform="translate(2.484 25.815)">
					<path class="st21" d="M0.2,5L0.1,2.6V1.3L0,0.1L1.3,0l0.1,1.2l0.1,1.2V5H0.2z"/>
				</g>
				<g transform="translate(2.74 32.294)">
					<path class="st21" d="M0.2,5L0,0.1L1.3,0l0.2,5H0.2z"/>
				</g>
				<g transform="translate(2.953 38.769)">
					<path class="st21" d="M0.1,5L0,0h1.3l0.1,5H0.1z"/>
				</g>
				<g transform="translate(3.145 45.243)">
					<path class="st21" d="M0.1,5L0,0h1.3l0.1,5H0.1z"/>
				</g>
				<g transform="translate(3.322 51.718)">
					<path class="st21" d="M0.1,5L0,0h1.3l0.1,5H0.1z"/>
				</g>
			</g>
		</g>
		<path class="st23" d="M-1698.8-111.1c0,0-2.8-5.4-1.8-8.4s5.9-3.7,8.4-3.3s2.2,1.5,2.2,1.5s2,0.5,1.5,1.8
			S-1697.7-111.3-1698.8-111.1z"/>
		<path class="st24" d="M-1697.2-103.8c-0.5,0-0.9-0.2-1.3-0.4c-1.7-1-2.1-4.3-2.1-4.3l1.4-0.7c0,0.3,0,0.6,0.1,0.9
			C-1699-106.6-1698.3-105-1697.2-103.8z"/>
		<path class="st25" d="M-1690-108.3c-1.5,3.7-3.9,5.8-6,5.2c-0.4-0.1-0.8-0.4-1.2-0.7c-1.1-1.3-1.7-2.8-1.9-4.5
			c0-0.4-0.1-0.7-0.1-0.9c0-0.3,0-0.7,0-1c-0.9,0.1-1.7-0.4-2-1.2c-0.4-1.5,2.4-1.8,2.4-1.8c0.5-1.6,1.1-3.1,1.9-4.5
			c1.4-0.7,3-1.1,4.6-1.1c2,0.3,2.3,0.6,2.3,0.6S-1688.5-112-1690-108.3z"/>
		<path class="st6" d="M-1696.2-108.5c0,0,0.7,1.5,2,1.7s1.4-0.1,1.4-0.1s-1.4,1.6-2.3,1.2C-1696-106.2-1696.2-108.5-1696.2-108.5z"
			/>
		<g transform="translate(-1700.756 -114.014)">
			<path class="st24" d="M8,0C7.8,0.6,7.8,1.3,8,1.9C8.4,3.4,9.4,4.6,9.1,5C8.8,5.5,8.3,5.7,7.7,5.7C7.3,5.6,6.8,5.3,6.6,4.8
				C6.3,3.1,6.8,1.3,8,0z"/>
			<path class="st24" d="M1.6,1.9c0,0-0.9-0.5-1.4,0s0,1.2,0.6,1.3s0.8,0,0.5-0.4c-0.2-0.1-0.2-0.5,0-0.7C1.4,2,1.5,1.9,1.6,1.9z"/>
			<path class="st24" d="M6.4,1.4c0,0-0.2-1.4-1.2-1.3S3,1.2,3.3,1.9S5.4,2.6,6,2.3C6.3,2.1,6.5,1.8,6.4,1.4z"/>
			<path class="st24" d="M10,0.8C9.6,0.7,8.6,1.4,8.8,2c0.1,0.5,0.5,0.9,1,1S11,3.2,11,2.6S11,0.9,10,0.8z"/>
		</g>
		<g transform="translate(-1696.928 -116.75)">
			<path class="st26" d="M0.2,1.5c0.3-0.2,0.7-0.3,1.1-0.4c0.7-0.2,1,0,1.1-0.4S2.6,0.1,2.2,0C1.6,0,0.9,0.3,0.4,0.7
				C0.2,0.9,0.1,1.2,0.2,1.5z"/>
			<path class="st26" d="M5.8,1.5c0,0-0.5,0.4-0.5,0.7S6,2.5,6.6,2.8s0.6,0.4,0.6,0.4c0.1-0.3,0.2-0.6,0-0.8
				C6.9,1.9,6.4,1.5,5.8,1.5z"/>
			<path class="st26" d="M0,4.8c0.1-0.3,0.3-0.6,0.6-0.7c0.5-0.3,1.1-0.3,1.7-0.2C2.6,4.1,3,4.5,2.7,4.7s-0.6,0-1.4,0.1
				C0.5,4.9-0.2,5.2,0,4.8z"/>
			<path class="st26" d="M5.7,4.2c0,0-0.6,0.2-0.5,0.4s0.6,0.2,1.1,0.5S7,5.9,7.2,5.8c0.2-0.3,0.2-0.6,0-0.9
				C6.8,4.5,6.3,4.2,5.7,4.2z"/>
		</g>
		<path class="st25" d="M-1681.8-80.5c0.4-0.6,0.5-2-0.1-2.3c-0.3-0.1,0.1,1.4-1.1,1.7c-0.7,0.2-1.5,0.2-2.2,0c0,0,3.2-1,3.6-3.5
			c0.1-0.6-2.9,1.9-2.9,1.9c-1.3,0-4.3,0.3-5.1-0.5c-0.4-0.5-0.3-1.4-0.2-2.4c0-0.1,1-0.7,1.2-1.2c0.5-0.9-0.8-0.3-0.8-0.3
			s-1.4,0.5-1.5,1c-0.1,0.4-1,2-1.4,3.4c0.1,0.1,0.2,0.2,0.3,0.2c0.1,0.1,0.2,0.2,0.3,0.3c0.7,0.9,1.1,2.1,1.2,3.2
			c0,0.1,0.1,0.3,0.1,0.4c0,0.2,0,0.4,0,0.6c0,0.3-0.1,0.7-0.2,1c0.4,0.1,0.8,0.2,1.2,0.2c0.7,0,5.2-0.1,5.9-0.2s1.3-0.3,1.4-0.7
			c0.1-0.2,0.2-0.4,0.2-0.6C-1681.9-78.3-1681.3-79.6-1681.8-80.5C-1681.7-80.4-1681.7-80.4-1681.8-80.5z M-1682.3-79.4
			c-0.7,0-2.3,0-1.9-0.1c0.7-0.1,1.4-0.4,2.1-0.7C-1682.2-79.9-1682.2-79.7-1682.3-79.4L-1682.3-79.4z"/>
		<path class="st27" d="M-1684.8-78.1c0.6,0.2,1.2,0.3,1.9,0.3c0.4-0.1,0.8-0.2,1.1-0.5C-1682.8-78-1683.8-78-1684.8-78.1z"/>
		<path class="st25" d="M-1669.1-90.4c-0.3,0.3-3.8,3.5-3.5,3.4c0.2,0,2.2-1.5,2.2-1.5s0.6-0.3,0.7-0.1c0.2,0.4-3.6,3.2-3.6,3.2
			c-0.3,0.4-0.7,0.7-1.1,1c-0.5,0.5-1.2,1-1.9,1.2c-2,0.1-2.8-0.5-2.8-2.8c0-0.9-0.1-1.9-0.2-2.8c-0.3-1.5-1-3-0.7-3.2
			s1,0.6,1.4,1.5s0.3,2,0.7,2.1c0.1,0,0.2,0,0.3,0c0.4-0.3,0.7-0.7,1-1.1c0.2-0.3,0.4-0.6,0.7-1c1.5-2,2.6-3.5,3.8-3.5
			c0.4,0,0.1,0.4-0.6,1.1c-0.9,0.9-1.6,2-2.2,3.1c0,0.3,0.9-0.2,1.4-0.7s2.5-2.6,3-2.6s-0.1,0.8-0.8,1.6s-2.5,2.8-2.2,3.1
			s2.7-2.2,3.6-2.4S-1668.8-90.7-1669.1-90.4z"/>
		<path class="st27" d="M-1673.7-86.2c-1.4-0.1-2.8,0.4-3.8,1.4c0.2-0.5,0.4-1.1,0.4-1.6c0-0.7-0.1-1.3-0.3-2c0.4-0.3,0.7-0.7,1-1.1
			c0.6,0.5,1.1,1.1,1.6,1.7C-1674.4-87.3-1674-86.8-1673.7-86.2z"/>
	</g>
	<g transform="translate(376.955 2.916)">
		<g transform="translate(27.046 296)">
			<line class="st2" x1="26.4" y1="56.9" x2="26.4" y2="91.6"/>
			<line class="st28" x1="44.9" y1="87.3" x2="44.9" y2="99.3"/>
			<path class="st29" d="M4,3.2c1.3-0.3,2.6,0.2,3.3,1.3C7.7,5.3,4.6,5.4,3.4,6C2.6,6.5,1.6,6.2,1.2,5.4c0-0.1-0.1-0.2-0.1-0.3
				C0.7,4.4,2.1,3.9,4,3.2z"/>
			<path class="st30" d="M58.1,97.3c0.1,4.5-3.4,8.3-8,8.4H8c-4.5-0.1-8.1-3.9-8-8.4V8.4C-0.1,3.9,3.4,0.1,8,0h42.2
				c4.5,0.1,8.1,3.9,8,8.4v88.9H58.1z"/>
			<path class="st6" d="M56.6,95c0.1,4.3-3.3,7.8-7.6,8H9c-4.3-0.1-7.7-3.7-7.6-8V10.7C1.3,6.4,4.7,2.9,9,2.7h40
				c4.3,0.1,7.7,3.7,7.6,8V95z"/>
			<path class="st31" d="M56.6,95c0.1,4.3-3.3,7.8-7.6,8H9c-4.3-0.1-7.7-3.7-7.6-8V10.7C1.3,6.4,4.7,2.9,9,2.7h40
				c4.3,0.1,7.7,3.7,7.6,8V95z"/>
			<path class="st32" d="M41.6,3c0,0-24.5,0-32.4,0c-7.3,0-7.6,7.7-7.6,9.6V44C15.4,30.1,27.7,16.9,41.6,3z"/>
			<path class="st33" d="M39.9,7.1c0,0.7-0.5,1.2-1.2,1.2h-2.1c-0.7,0-1.2-0.5-1.2-1.2l0,0c0-0.7,0.5-1.2,1.2-1.2l0,0h2.1
				C39.4,5.9,39.9,6.4,39.9,7.1L39.9,7.1z"/>
			<path class="st33" d="M16.3,7.1c0,0.7-0.5,1.2-1.2,1.2H8.6c-0.7,0-1.2-0.5-1.2-1.2l0,0c0-0.7,0.5-1.2,1.2-1.2l0,0H15
				C15.7,5.9,16.3,6.4,16.3,7.1L16.3,7.1z"/>
			<path class="st33" d="M50.4,7.1c0,0.7-0.5,1.2-1.2,1.2h-6.4c-0.7,0-1.2-0.5-1.2-1.2l0,0c0-0.7,0.5-1.2,1.2-1.2h6.4
				C49.9,5.9,50.4,6.4,50.4,7.1L50.4,7.1z"/>
			<path class="st32" d="M56,55V31.8C55.3,32.4,1.5,81.7,1.5,81.7c-0.1,0.1-0.1,8.8-0.1,12.9s3.7,6.5,3.7,6.5L56,55z"/>
			<g transform="translate(34.714 72.728)" class="st34">
				<path class="st35" d="M0,0L0,0L0,0L0,0L0,0z"/>
			</g>
			<g transform="translate(35.877 73.42)">
				<path class="st36" d="M0,0L0,0L0,0L0,0L0,0z"/>
				<path class="st37" d="M0,0L0,0L0,0L0,0L0,0z"/>
			</g>
			<g transform="translate(38.718 66.592)" class="st34">
				<path class="st35" d="M0,0L0,0L0,0L0,0L0,0z"/>
			</g>
			<g transform="translate(39.616 67.125)">
				<path class="st36" d="M0,0L0,0L0,0L0,0L0,0z"/>
				<path class="st37" d="M0,0L0,0L0,0L0,0L0,0z"/>
			</g>
			<g transform="translate(33.706 74.184)" class="st34">
				<path class="st35" d="M0,0L0,0L0,0L0,0L0,0z"/>
			</g>
			<g transform="translate(34.917 74.905)">
				<path class="st36" d="M0,0L0,0L0,0L0,0L0,0z"/>
				<path class="st37" d="M0,0L0,0L0,0L0,0L0,0z"/>
			</g>
			<g transform="translate(5.971 41.484)">
				<path class="st38" d="M13.5,1.3H0.6C0.3,1.3,0,1,0,0.6l0,0C0,0.3,0.3,0,0.6,0l0,0h12.9c0.4,0,0.6,0.3,0.6,0.6l0,0
					C14.2,1,13.9,1.3,13.5,1.3z"/>
			</g>
			<g transform="translate(5.971 46.593)">
				<path class="st38" d="M9,1.3H0.6C0.3,1.3,0,1,0,0.6l0,0C0,0.3,0.3,0,0.6,0l0,0H9c0.4,0,0.6,0.3,0.6,0.6C9.6,1,9.3,1.3,9,1.3z"/>
			</g>
			<g transform="translate(17.527 46.593)">
				<path class="st38" d="M15.9,1.3H0.6C0.3,1.3,0,1,0,0.6l0,0C0,0.3,0.3,0,0.6,0l0,0h15.2c0.4,0,0.6,0.3,0.6,0.6l0,0
					C16.5,1,16.2,1.3,15.9,1.3L15.9,1.3z"/>
			</g>
			<g transform="translate(36.158 46.593)">
				<path class="st38" d="M15.9,1.3H0.6C0.3,1.3,0,1,0,0.6l0,0C0,0.3,0.3,0,0.6,0l0,0h15.3c0.4,0,0.6,0.3,0.6,0.6
					C16.6,1,16.3,1.3,15.9,1.3z"/>
			</g>
			<g transform="translate(13.292 51.595)">
				<path class="st9" d="M14.8,1.3H0.6C0.3,1.3,0,1,0,0.6l0,0C0,0.3,0.3,0,0.6,0l0,0h14.2c0.4,0,0.6,0.3,0.6,0.6l0,0
					C15.4,1,15.2,1.3,14.8,1.3L14.8,1.3z"/>
			</g>
			<g transform="translate(6.214 51.595)">
				<path class="st9" d="M4.6,1.3h-4C0.3,1.3,0,1,0,0.6l0,0C0,0.3,0.3,0,0.6,0l0,0h3.9c0.4,0,0.6,0.3,0.6,0.6l0,0
					C5.2,1,4.9,1.3,4.6,1.3L4.6,1.3z"/>
			</g>
			<g transform="translate(31.579 51.595)">
				<path class="st9" d="M13.2,1.3H0.6C0.3,1.3,0,1,0,0.6l0,0C0,0.3,0.3,0,0.6,0l0,0h12.6c0.4,0,0.6,0.3,0.6,0.6l0,0
					C13.8,1,13.6,1.3,13.2,1.3L13.2,1.3z"/>
			</g>
			<g transform="translate(5.971 56.502)">
				<path class="st9" d="M9,0H0.6C0.3,0,0,0.3,0,0.6l0,0C0,1,0.3,1.3,0.6,1.3h7.6C8.4,0.8,8.7,0.4,9,0z"/>
			</g>
			<g transform="translate(19.942 76.562)">
				<path class="st38" d="M12.4,1.2H0.6C0.3,1.2,0,0.9,0,0.6S0.3,0,0.6,0h11.8C12.7,0,13,0.3,13,0.6S12.7,1.2,12.4,1.2z"/>
			</g>
			<g transform="translate(19.942 80.575)">
				<path class="st38" d="M18,1.2H0.6C0.3,1.2,0,0.9,0,0.6S0.3,0,0.6,0H18c0.3,0,0.6,0.3,0.6,0.6S18.3,1.2,18,1.2z"/>
			</g>
			<g transform="translate(19.942 84.78)">
				<path class="st38" d="M8.2,1.2H0.6C0.3,1.2,0,0.9,0,0.6S0.3,0,0.6,0h7.6c0.3,0,0.6,0.3,0.6,0.6S8.6,1.2,8.2,1.2z"/>
			</g>
			<g transform="translate(6.74 75.886)">
				<path class="st12" d="M0,11.1V0h11.1v11.1H0z M10,10V1H1v9H10z"/>
				<path class="st12" d="M10.7,10.7H0.4V0.4h10.2v10.3H10.7z M1.1,10H10V1.1H1.1V10z"/>
			</g>
			<g transform="translate(8.326 78.15)">
				<path class="st12" d="M0,3l0.8-0.8l2.6,2.4L7.1,0L8,0.8L3.5,6.5L0,3z"/>
				<path class="st12" d="M3.5,5.9L0.6,3l0.5-0.5l2.3,2.3l3.4-4.4l0.5,0.4L3.5,5.9z"/>
			</g>
			<g transform="translate(5.755 20.041)">
				<path class="st10" d="M0,9c0.2,4.8,4.2,8.5,9,8.3l0,0c4.8-0.2,8.5-4.2,8.3-9l0,0c-0.2-4.8-4.2-8.5-9-8.3l0,0l0.3,8.6L0,9z"/>
			</g>
			<rect x="28.2" y="21.5" class="st39" width="5" height="13.4"/>
			<rect x="35.1" y="18.6" class="st9" width="5" height="16.3"/>
			<rect x="41.9" y="27.3" class="st39" width="5" height="7.6"/>
			<path class="st40" d="M33.1,37.2c0,0.1-0.1,0.2-0.2,0.2h-4.6c-0.1,0-0.2-0.1-0.2-0.2l0,0c0-0.1,0.1-0.2,0.2-0.2h4.6
				C33.1,37,33.1,37.1,33.1,37.2L33.1,37.2z"/>
			<path class="st40" d="M40,37.2c0,0.1-0.1,0.2-0.2,0.2h-4.6c-0.1,0-0.2-0.1-0.2-0.2l0,0c0-0.1,0.1-0.2,0.2-0.2h4.6
				C39.9,37,40,37.1,40,37.2L40,37.2z"/>
			<path class="st40" d="M46.9,37.2c0,0.1-0.1,0.2-0.2,0.2h-4.6c-0.1,0-0.2-0.1-0.2-0.2l0,0c0-0.1,0.1-0.2,0.2-0.2h4.6
				C46.9,37,46.9,37.1,46.9,37.2L46.9,37.2z"/>
		</g>
	</g>
</g>
</svg>
