<svg xmlns="http://www.w3.org/2000/svg" xmlns:xlink="http://www.w3.org/1999/xlink" width="367.067" height="247.669" viewBox="0 0 367.067 247.669">
  <defs>
    <clipPath id="clip-path">
      <path id="Path_4514" data-name="Path 4514" d="M297.775,332.253c-1.016,3.508-3.1,8.457-5.266,14.131l59.6-7.009c-11.083-15.761-25.031-31.7-19.616-65.649,2.541-15.933,12.715-45.467,1.321-60.311-12.982-16.911-26.428-4.523-34.327-18.19-12.345-21.361-36.212-32.143-54.206-15.086-17.76,16.834-6.052,57.9,33.365,95.716C303.855,306.191,303.081,313.937,297.775,332.253Z" transform="translate(-237.208 -171.717)" fill="#0b8950"/>
    </clipPath>
    <clipPath id="clip-path-2">
      <path id="Path_4520" data-name="Path 4520" d="M232.734,487.433c3.541,27.345,15.687,16.769,28.184,18.039,16.447,18.684,19.99,37.4.92,56.158l-23.795-.75c-8.724.618-19.216-.837-20-12.457-.887-13.142,1.227-21.8-14.275-26.487S180.554,506.29,184.96,492.27c4.637-14.754-12.326-31.912-2.657-42.569C199.15,431.131,229.047,458.958,232.734,487.433Z" transform="translate(-179.271 -443.691)" fill="#15a165"/>
    </clipPath>
    <linearGradient id="linear-gradient" x1="-0.185" y1="-1.561" x2="0.831" y2="2.777" gradientUnits="objectBoundingBox">
      <stop offset="0.004" stop-color="#e38ddd"/>
      <stop offset="1" stop-color="#9571f6"/>
    </linearGradient>
  </defs>
  <g id="Research_L1_1" transform="translate(0)">
    <g id="Group_3200" data-name="Group 3200" transform="translate(0 0)">
      <path id="Path_4504" data-name="Path 4504" d="M329.015,1059.285c-43.7,4.83-54.129,9.695-54.019,11.733.2,3.764,36.649,3.269,37.243,10.219.3,3.512-8.878,5.114-8.724,8.327.487,10.151,93.385,19.7,116.09,14.76.493-.107,6.368-1.4,7.046.378,1.009,2.646-10.979,8.174-10.4,12.868.715,5.807,20.647,10.2,41.269,7.569,23.34-2.972,28.215-12.464,54.354-19.3,16.3-4.265,16.557-1.134,43.618-4.542,19.727-2.484,67.664-8.52,68.446-20.059.613-9.05-27.93-19.237-46.638-23.844-33.027-8.133-56.384-4.04-83.545-1.514C422.082,1062.545,412.485,1050.061,329.015,1059.285Z" transform="translate(-256.881 -885.892)" fill="#eee"/>
      <path id="Path_4505" data-name="Path 4505" d="M476.591,1096.221c-14.984.6-24.433,1.02-24.6,2.839-.394,4.281,50.65,15.87,105.215,17.41,28.2.8,42.273-1.517,99.349-7,75.666-7.271,110.726-5.419,110.892-9.462.156-3.794-30.432-8.453-52.608-10.408-28.469-2.51-45.129-.746-75.694.757C612.809,1091.65,635.518,1089.831,476.591,1096.221Z" transform="translate(-400.38 -914.879)" fill="#ddd"/>
      <path id="Path_4508" data-name="Path 4508" d="M515.19,1197.389c-6.793,1.117-14.108,2.319-14.193,4.352-.164,3.942,26.971,7.9,29.9,8.326,7.485,1.092,15.071,2.159,25.168,1.7,9.693-.437,27.47-2.538,27.628-6.055.178-3.938-21.8-8.056-34.252-9.462A129.05,129.05,0,0,0,515.19,1197.389Z" transform="translate(-440.114 -1001.855)" fill="#ddd"/>
      <g id="Group_3177" data-name="Group 3177">
        <g id="Group_3171" data-name="Group 3171" transform="translate(10.964)">
          <path id="Path_4509" data-name="Path 4509" d="M297.775,332.253c-1.016,3.508-3.1,8.457-5.266,14.131l59.6-7.009c-11.083-15.761-25.031-31.7-19.616-65.649,2.541-15.933,12.715-45.467,1.321-60.311-12.982-16.911-26.428-4.523-34.327-18.19-12.345-21.361-36.212-32.143-54.206-15.086-17.76,16.834-6.052,57.9,33.365,95.716C303.855,306.191,303.081,313.937,297.775,332.253Z" transform="translate(-237.208 -171.717)" fill="#0b8950"/>
          <g id="Group_3170" data-name="Group 3170" clip-path="url(#clip-path)">
            <g id="Group_3169" data-name="Group 3169" transform="translate(-4.853 -10.185)" style="mix-blend-mode: soft-light;isolation: isolate">
              <g id="Group_3168" data-name="Group 3168">
                <path id="Path_4510" data-name="Path 4510" d="M302.127,295.671c-1.6-7.647-3.491-14.778-5.5-22.329l-.668-2.518c-1.19-3.576-2.266-7.135-3.306-10.576-2.35-7.77-4.569-15.11-7.994-22.617-.148-.452-.27-.9-.4-1.369a9.918,9.918,0,0,0-2.358-4.832l-.041-.063c-15.041-40.523-38.694-78.621-70.3-113.237l.257-.235c31.627,34.638,55.3,72.764,70.356,113.315a10.385,10.385,0,0,1,2.421,4.961c.128.467.248.909.386,1.335,3.427,7.509,5.65,14.86,8,22.642,1.04,3.439,2.115,6.995,3.306,10.577l.671,2.528c2.007,7.555,3.9,14.691,5.5,22.347Z" transform="translate(-211.565 -117.896)" fill="#fff"/>
                <path id="Path_4511" data-name="Path 4511" d="M624.44,435.045c-5.617-19.563-1.481-45.687,2.978-64.158a288.942,288.942,0,0,1,11.128-35.742l.323.13a288.633,288.633,0,0,0-11.114,35.7c-4.448,18.428-8.576,44.486-2.981,63.975Z" transform="translate(-544.106 -294.034)" fill="#fff"/>
                <path id="Path_4512" data-name="Path 4512" d="M398.231,199.671c-7.117-20.428-9.856-43.514-10.756-51.1-.172-1.451-.286-2.41-.34-2.587l.333-.1c.06.2.152.955.352,2.648.9,7.577,3.634,30.635,10.739,51.027Z" transform="translate(-353.911 -140.586)" fill="#fff"/>
                <path id="Path_4513" data-name="Path 4513" d="M304.212,498.89c-11.826-16.079-52.846-22.184-53.259-22.244l.05-.344c.414.06,41.578,6.188,53.49,22.383Z" transform="translate(-243.499 -408.478)" fill="#fff"/>
              </g>
            </g>
          </g>
        </g>
        <g id="Group_3176" data-name="Group 3176" transform="translate(0 51.467)">
          <g id="Group_3175" data-name="Group 3175">
            <path id="Path_4515" data-name="Path 4515" d="M232.734,487.433c3.541,27.345,15.687,16.769,28.184,18.039,16.447,18.684,19.99,37.4.92,56.158l-23.795-.75c-8.724.618-19.216-.837-20-12.457-.887-13.142,1.227-21.8-14.275-26.487S180.554,506.29,184.96,492.27c4.637-14.754-12.326-31.912-2.657-42.569C199.15,431.131,229.047,458.958,232.734,487.433Z" transform="translate(-179.271 -443.691)" fill="#15a165"/>
            <g id="Group_3174" data-name="Group 3174" clip-path="url(#clip-path-2)">
              <g id="Group_3173" data-name="Group 3173" transform="translate(1.873 -3.329)" style="mix-blend-mode: soft-light;isolation: isolate">
                <g id="Group_3172" data-name="Group 3172">
                  <path id="Path_4516" data-name="Path 4516" d="M279.19,525.9a180.437,180.437,0,0,1-29.289-32.32A174.811,174.811,0,0,1,229.359,455.2a164.819,164.819,0,0,1-7.057-23.582l.348-.076a164.542,164.542,0,0,0,7.042,23.53,174.426,174.426,0,0,0,20.5,38.306,180.082,180.082,0,0,0,29.231,32.256Z" transform="translate(-216.032 -430.511)" fill="#fff"/>
                  <path id="Path_4517" data-name="Path 4517" d="M398.423,985.539l-.2-.3a61.1,61.1,0,0,1,14.624-6.919,59.632,59.632,0,0,1,7.974-2.066l.065.35a59.182,59.182,0,0,0-7.926,2.054A60.737,60.737,0,0,0,398.423,985.539Z" transform="translate(-358.664 -872.148)" fill="#fff"/>
                  <path id="Path_4518" data-name="Path 4518" d="M228.51,766.488c-13.448-10.26-39.026-6.171-39.282-6.126l-.058-.351c.259-.042,25.985-4.16,39.556,6.195Z" transform="translate(-189.17 -696.138)" fill="#fff"/>
                  <path id="Path_4519" data-name="Path 4519" d="M292.4,467.715c-5.805-18.209,5.628-41.385,5.744-41.617l.318.16c-.115.231-11.484,23.279-5.723,41.349Z" transform="translate(-271.53 -426.098)" fill="#fff"/>
                </g>
              </g>
            </g>
          </g>
        </g>
      </g>
      <g id="Group_3179" data-name="Group 3179" transform="translate(166.615 36.405)">
        <path id="Path_4521" data-name="Path 4521" d="M1527.87,862.534l-79.4.023c-6.431,0-11.92,4.726-12.179,10.548h0c-.259,5.82,4.812,10.418,11.244,10.273l79.422-1.784a10.338,10.338,0,0,0,10.04-9.636h0A8.956,8.956,0,0,0,1527.87,862.534Z" transform="translate(-1365.025 -768.212)" opacity="0.3" fill="url(#linear-gradient)"/>
        <path id="Path_4522" data-name="Path 4522" d="M1328.107,379.672l-91.668-5.284a13.6,13.6,0,0,0-14.495,12.866h0a13.555,13.555,0,0,0,13.33,14.019l91.71,2.4c5.984.157,11.016-5.012,11.324-11.546h0C1338.618,385.594,1334.088,380.017,1328.107,379.672Z" transform="translate(-1191.238 -372.422)" fill="#9ca09e" opacity="0.5"/>
        <path id="Path_4523" data-name="Path 4523" d="M1741.841,548.484l-65.584-.517c-5.3-.042-9.832,4.546-10.059,10.246h0c-.227,5.7,3.939,10.237,9.24,10.142l65.606-1.167c4.405-.078,8.115-4.281,8.335-9.388h0C1749.6,552.691,1746.245,548.519,1741.841,548.484Z" transform="translate(-1564.404 -513.173)" fill="#f15a31"/>
        <path id="Path_4524" data-name="Path 4524" d="M1086.894,378.639a13.593,13.593,0,1,1-12.762-14.517A13.794,13.794,0,0,1,1086.894,378.639Z" transform="translate(-1059.73 -364.098)" fill="#cacccb"/>
        <g id="Group_3178" data-name="Group 3178" transform="translate(33.841 61.436)">
          <path id="Path_4525" data-name="Path 4525" d="M1348.866,689.757l-94.729-1.009c-7.893-.084-14.9,6.023-15.529,13.638h0c-.625,7.61,5.382,13.644,13.287,13.483l94.879-1.925c6.182-.126,11.585-5.559,12.158-12.141h0C1359.5,695.217,1355.037,689.823,1348.866,689.757Z" transform="translate(-1238.563 -688.747)" fill="#9ca09e" opacity="0.5"/>
          <path id="Path_4526" data-name="Path 4526" d="M1275.623,715.99c-.476,5.723-5.683,10.441-11.706,10.543-6.107.1-10.729-4.566-10.246-10.434s5.882-10.6,11.981-10.553C1271.668,705.588,1276.1,710.265,1275.623,715.99Z" transform="translate(-1250.783 -702.367)" fill="#f4f7fa" style="mix-blend-mode: soft-light;isolation: isolate"/>
        </g>
      </g>
      <g id="Group_3181" data-name="Group 3181" transform="translate(65.718 50.564)">
        <path id="Path_4527" data-name="Path 4527" d="M829.566,1096.495l-287.813-2.142v6.337a3.484,3.484,0,0,0,2.956,3.443l81.385,12.479a13.079,13.079,0,0,0,2.92.117L826.438,1102.5a3.37,3.37,0,0,0,3.128-3.361Z" transform="translate(-538.877 -970.321)" fill="#5d5e5d"/>
        <g id="Group_3180" data-name="Group 3180">
          <path id="Path_4528" data-name="Path 4528" d="M712.8,554.818l-180.39,11.593c-3.228.207-5.853-2-5.853-4.924V444.217a5.6,5.6,0,0,1,5.853-5.3H712.8a4.8,4.8,0,0,1,4.809,4.791v106.01A5.19,5.19,0,0,1,712.8,554.818Z" transform="translate(-526.554 -438.917)" fill="#434443"/>
          <path id="Path_4529" data-name="Path 4529" d="M728,554.818l-180.39,11.593c-3.228.207-5.853-2-5.853-4.924V444.217a5.6,5.6,0,0,1,5.853-5.3H728a4.8,4.8,0,0,1,4.81,4.791v106.01A5.19,5.19,0,0,1,728,554.818Z" transform="translate(-538.877 -438.917)" fill="#696d6b"/>
          <path id="Path_4530" data-name="Path 4530" d="M756,576.516l-168.015,10.07a4.249,4.249,0,0,1-4.761-4.041V479.874a4.582,4.582,0,0,1,4.761-4.345L756,474.9a3.935,3.935,0,0,1,3.968,3.926v93.514A4.253,4.253,0,0,1,756,576.516Z" transform="translate(-572.497 -468.088)" fill="#ededed"/>
          <path id="Path_4531" data-name="Path 4531" d="M1065.175,447.42a2.08,2.08,0,1,1-2.075-1.972A2.032,2.032,0,0,1,1065.175,447.42Z" transform="translate(-959.881 -444.212)" fill="#fff"/>
          <path id="Path_4532" data-name="Path 4532" d="M684.534,522.655c-13.906-6.8-24.841,1.818-35.394-6.689-6.4-5.157-3.257-9-11.129-16.71-8.719-8.536-14.4-5.667-23.158-13.349-11.08-9.714-5.538-17.272-15.082-24.246-11.578-8.461-24.064-.63-35.086-8.744-4.754-3.5-7.362-8.588-8.724-14H545.177a3.28,3.28,0,0,0-3.424,3.111V563.589a3.038,3.038,0,0,0,3.424,2.89l183.847-11.867a3.014,3.014,0,0,0,2.216-1.232c-13.458-.446-21.726-4.549-27.011-8.79C693.89,536.292,695.683,528.11,684.534,522.655Z" transform="translate(-538.877 -438.917)" fill="#fff" opacity="0.48" style="mix-blend-mode: soft-light;isolation: isolate"/>
        </g>
        <path id="Path_4533" data-name="Path 4533" d="M735.186,1048.463l-193.433,12.2,84.34,12.932a13.072,13.072,0,0,0,2.92.118l200.552-14.453-91.3-10.715A17.151,17.151,0,0,0,735.186,1048.463Z" transform="translate(-538.877 -933.087)" fill="#757775"/>
        <path id="Path_4534" data-name="Path 4534" d="M690.905,1070.539l161.038-10.31,49.84,5.8-159.651,11.021Z" transform="translate(-659.804 -942.654)" fill="#adb2ad" opacity="0.98" style="mix-blend-mode: multiply;isolation: isolate"/>
      </g>
      <g id="Group_3196" data-name="Group 3196" transform="translate(30.742 31.052)">
        <g id="Group_3186" data-name="Group 3186" transform="translate(144.953 30.665)">
          <path id="Path_4535" data-name="Path 4535" d="M1107.718,523.379V561.3a2.13,2.13,0,0,0,2.083,2.233l69.726-1.573a2.178,2.178,0,0,0,1.992-2.273V522.625Z" transform="translate(-1107.718 -517.937)" fill="#929392" opacity="0.79"/>
          <path id="Path_4536" data-name="Path 4536" d="M1179.527,497.853l-69.726.61a2.211,2.211,0,0,0-2.083,2.3v3.886l73.8-.785v-3.8A2.1,2.1,0,0,0,1179.527,497.853Z" transform="translate(-1107.718 -497.853)" fill="#888988"/>
          <g id="Group_3185" data-name="Group 3185" transform="translate(5.392 10.52)">
            <g id="Group_3184" data-name="Group 3184" transform="translate(0)">
              <g id="Group_3182" data-name="Group 3182" transform="translate(11.677)">
                <path id="Path_4537" data-name="Path 4537" d="M1197.917,568.263l3.849-14.82c5.821,1.994,10.028,7.931,10.059,15.011Z" transform="translate(-1197.917 -553.442)" fill="#7fd0b1"/>
              </g>
              <g id="Group_3183" data-name="Group 3183" transform="translate(0 3.215)">
                <path id="Path_4538" data-name="Path 4538" d="M1209.823,637.368a12.746,12.746,0,0,1-3.9,8.473l-6.04-8.62Z" transform="translate(-1187.831 -624.582)" fill="#fff"/>
                <path id="Path_4539" data-name="Path 4539" d="M1161.754,581.546c-2.331-2.416-5.143-5.337-7.379-7.67a10.648,10.648,0,0,1,7.609-3.443,10.038,10.038,0,0,1,2.591.3Z" transform="translate(-1150.937 -570.432)" fill="#fff"/>
                <path id="Path_4540" data-name="Path 4540" d="M1146.54,600.483l-8.457,6.967a12.748,12.748,0,0,1-1.874-6.726,12.954,12.954,0,0,1,2.779-8.086q.929.969,2.062,2.148C1143.336,597.163,1145.632,599.542,1146.54,600.483Z" transform="translate(-1136.21 -588.436)" fill="#fff"/>
                <path id="Path_4541" data-name="Path 4541" d="M1157.222,639.831l-.164,11.069a10.5,10.5,0,0,1-7.976-4.36Z" transform="translate(-1146.647 -626.698)" fill="#fff"/>
                <path id="Path_4542" data-name="Path 4542" d="M1196.374,642.222l5.83,8.318a10.478,10.478,0,0,1-5.987,2.295Z" transform="translate(-1184.862 -628.637)" fill="#fff"/>
              </g>
            </g>
            <path id="Path_4543" data-name="Path 4543" d="M1317.5,570.737l-35.688.5v-3.746l35.688-.458Z" transform="translate(-1254.26 -564.461)" fill="#fff"/>
            <path id="Path_4544" data-name="Path 4544" d="M1317.5,606.156l-35.688.575v-3.745l35.688-.533Z" transform="translate(-1254.26 -593.178)" fill="#fff"/>
            <path id="Path_4545" data-name="Path 4545" d="M1317.5,641.576l-35.688.65V638.48l35.688-.608Z" transform="translate(-1254.26 -621.895)" fill="#fff"/>
            <path id="Path_4546" data-name="Path 4546" d="M1317.5,677l-35.688.725v-3.746l35.688-.683Z" transform="translate(-1254.26 -650.612)" fill="#fff"/>
          </g>
          <path id="Path_4547" data-name="Path 4547" d="M1125.064,512.694a.983.983,0,0,1-.924,1.021.96.96,0,0,1-.924-1,.982.982,0,0,1,.924-1.021A.96.96,0,0,1,1125.064,512.694Z" transform="translate(-1120.283 -509.072)" fill="#fff"/>
        </g>
        <g id="Group_3187" data-name="Group 3187" transform="translate(71.633 85.184)">
          <path id="Path_4548" data-name="Path 4548" d="M720.264,817.108v45.966a2.538,2.538,0,0,0,2.646,2.62L808.7,861.07a2.671,2.671,0,0,0,2.374-2.741V814.853Z" transform="translate(-720.264 -809.384)" fill="#c4c4c4" opacity="0.79"/>
          <path id="Path_4549" data-name="Path 4549" d="M808.7,785.954l-85.793,1.831a2.778,2.778,0,0,0-2.646,2.82v4.71l90.813-2.343v-4.455A2.438,2.438,0,0,0,808.7,785.954Z" transform="translate(-720.264 -785.953)" fill="#888988"/>
          <path id="Path_4550" data-name="Path 4550" d="M845.534,890.834l-71.385,3.495V862.99l71.385-2.152Z" transform="translate(-763.952 -846.667)" fill="#fff"/>
          <path id="Path_4551" data-name="Path 4551" d="M845.534,920.894l-71.385,3.495V904.242c2.337,13.6,4.824,16.516,6.7,16.575,2.637.083,4.056-5.5,8.042-5.824,3.954-.319,5.288,4.976,8.248,4.657,5.623-.608,7.151-20.475,11.707-20.772,3.616-.236,6.062,12.094,9.246,11.471,2.326-.455,2.888-7.409,4.65-7.4,1.6,0,1.664,5.721,3.764,6.167,3.077.652,6.068-10.968,10.306-11.195,2.345-.125,5.266,3.231,8.724,14.893Z" transform="translate(-763.952 -876.727)" fill="#7fd0b1"/>
          <path id="Path_4552" data-name="Path 4552" d="M742.713,808.972a1.234,1.234,0,0,1-1.17,1.252,1.165,1.165,0,0,1-1.172-1.2,1.234,1.234,0,0,1,1.172-1.252A1.166,1.166,0,0,1,742.713,808.972Z" transform="translate(-736.566 -803.645)" fill="#fff"/>
        </g>
        <g id="Group_3190" data-name="Group 3190" transform="translate(0 0)">
          <g id="Group_3188" data-name="Group 3188">
            <path id="Path_4553" data-name="Path 4553" d="M341.726,379.413v65.9a3.886,3.886,0,0,0,3.953,3.9l125.3-1.923a3.6,3.6,0,0,0,3.39-3.713v-60.9Z" transform="translate(-341.726 -371.161)" fill="#c4c4c4" opacity="0.82"/>
            <path id="Path_4554" data-name="Path 4554" d="M470.984,339.5l-125.3-3.687a3.821,3.821,0,0,0-3.953,3.845v6.753L474.374,349.5v-6.24A3.66,3.66,0,0,0,470.984,339.5Z" transform="translate(-341.726 -335.808)" fill="#777"/>
            <path id="Path_4555" data-name="Path 4555" d="M374.612,356.673a1.7,1.7,0,0,1-1.745,1.708,1.807,1.807,0,0,1-1.748-1.8,1.7,1.7,0,0,1,1.748-1.708A1.807,1.807,0,0,1,374.612,356.673Z" transform="translate(-365.557 -351.265)" fill="#fff"/>
          </g>
          <g id="Group_3189" data-name="Group 3189" transform="translate(17.221 20.302)">
            <path id="Path_4556" data-name="Path 4556" d="M442.6,491.964l-9.872.1V443.092l9.872.177Z" transform="translate(-432.73 -443.092)" fill="#fff"/>
            <path id="Path_4557" data-name="Path 4557" d="M442.6,602.172l-9.872.1V579.022l9.872.03Z" transform="translate(-432.73 -553.299)" fill="#f15a31"/>
            <path id="Path_4558" data-name="Path 4558" d="M514.867,492.875l-9.717.1V444.389l9.717.174Z" transform="translate(-491.446 -444.144)" fill="#fff"/>
            <path id="Path_4559" data-name="Path 4559" d="M514.867,651.473l-9.717.1V640.04l9.717-.036Z" transform="translate(-491.446 -602.742)" fill="#f15a31"/>
            <path id="Path_4560" data-name="Path 4560" d="M586,493.772l-9.565.1V445.666l9.565.171Z" transform="translate(-549.239 -445.179)" fill="#fff"/>
            <path id="Path_4561" data-name="Path 4561" d="M586,674.283l-9.565.1v-6.008l9.565-.066Z" transform="translate(-549.239 -625.689)" fill="#f15a31"/>
            <path id="Path_4562" data-name="Path 4562" d="M656.019,494.655l-9.417.1v-47.83l9.417.169Z" transform="translate(-606.13 -446.198)" fill="#fff"/>
            <path id="Path_4563" data-name="Path 4563" d="M656.019,539.044l-9.417.1V501.673l9.417.111Z" transform="translate(-606.13 -490.588)" fill="#f15a31"/>
            <path id="Path_4564" data-name="Path 4564" d="M724.959,495.524l-9.272.1v-47.46l9.272.166Z" transform="translate(-662.141 -447.202)" fill="#fff"/>
            <path id="Path_4565" data-name="Path 4565" d="M724.959,557.671l-9.272.1V524.814l9.272.086Z" transform="translate(-662.141 -509.349)" fill="#f15a31"/>
            <path id="Path_4566" data-name="Path 4566" d="M792.841,496.38l-9.131.095v-47.1l9.131.164Z" transform="translate(-717.292 -448.19)" fill="#fff"/>
            <path id="Path_4567" data-name="Path 4567" d="M792.841,525.718l-9.131.095V485.565l9.131.126Z" transform="translate(-717.292 -477.528)" fill="#f15a31"/>
            <path id="Path_4568" data-name="Path 4568" d="M859.69,497.223l-8.992.093V450.58l8.992.161Z" transform="translate(-771.603 -449.163)" fill="#fff"/>
            <path id="Path_4569" data-name="Path 4569" d="M859.69,574.465l-8.992.093V545.851l8.992.063Z" transform="translate(-771.603 -526.406)" fill="#f15a31"/>
            <path id="Path_4570" data-name="Path 4570" d="M925.529,498.052l-8.857.092V451.762l8.857.159Z" transform="translate(-825.093 -450.121)" fill="#fff"/>
            <path id="Path_4571" data-name="Path 4571" d="M925.529,627.761l-8.857.092v-16.1l8.857-.005Z" transform="translate(-825.093 -579.83)" fill="#f15a31"/>
          </g>
        </g>
        <g id="Group_3195" data-name="Group 3195" transform="translate(168.698 78.335)">
          <g id="Group_3191" data-name="Group 3191" transform="translate(0)">
            <path id="Path_4572" data-name="Path 4572" d="M1233.2,775.8v38.257a2.065,2.065,0,0,0,2.067,2.2l67.628-3.4a2.187,2.187,0,0,0,1.888-2.29V774.048Z" transform="translate(-1233.195 -769.452)" fill="#a0a0a0" opacity="0.79"/>
            <path id="Path_4573" data-name="Path 4573" d="M1302.89,749.763l-67.628,1.444a2.25,2.25,0,0,0-2.067,2.344v3.92l71.583-1.811v-3.742A2.007,2.007,0,0,0,1302.89,749.763Z" transform="translate(-1233.195 -749.762)" fill="#888988"/>
            <path id="Path_4574" data-name="Path 4574" d="M1250.738,768.516a1,1,0,0,1-.915,1.041.945.945,0,0,1-.916-1,1,1,0,0,1,.916-1.041A.945.945,0,0,1,1250.738,768.516Z" transform="translate(-1245.934 -764.157)" fill="#fff"/>
          </g>
          <g id="Group_3192" data-name="Group 3192" transform="translate(4.538 15.563)">
            <path id="Path_4575" data-name="Path 4575" d="M1267.091,841.168a4.4,4.4,0,0,1,3.188-2.555l.1-6.541a10.54,10.54,0,0,0-8.8,7.012Z" transform="translate(-1260.745 -832.059)" fill="#f15a31"/>
            <path id="Path_4576" data-name="Path 4576" d="M1313.4,838.537a4.257,4.257,0,0,1,3.5,4.036l5.772.05c-.074-5.781-4.079-10.371-9.173-10.622Z" transform="translate(-1302.76 -832.001)" fill="#fff"/>
            <path id="Path_4577" data-name="Path 4577" d="M1293.762,894.411a4.531,4.531,0,0,1-4.075,4,3.674,3.674,0,0,1-1.693-.334l-3.077,5.7a8.829,8.829,0,0,0,4.769,1.143c5.157-.232,9.37-4.822,9.846-10.467Z" transform="translate(-1279.668 -882.601)" fill="#fff"/>
            <path id="Path_4578" data-name="Path 4578" d="M1261.477,887.741l3.08-5.706a4.692,4.692,0,0,1-1.524-3.545,5.291,5.291,0,0,1,.1-1.025l-5.516-2.079a12.611,12.611,0,0,0-.445,3.326A11.118,11.118,0,0,0,1261.477,887.741Z" transform="translate(-1257.174 -867.175)" fill="#fff"/>
          </g>
          <g id="Group_3193" data-name="Group 3193" transform="translate(26.192 14.909)">
            <path id="Path_4579" data-name="Path 4579" d="M1381.25,837.584a4.285,4.285,0,0,1,3.1-2.518l.094-6.451a10.274,10.274,0,0,0-8.557,6.912Z" transform="translate(-1375.077 -828.602)" fill="#fff"/>
            <path id="Path_4580" data-name="Path 4580" d="M1426.293,834.994a4.182,4.182,0,0,1,3.4,3.983l5.615.052c-.072-5.7-3.969-10.231-8.924-10.481Z" transform="translate(-1415.944 -828.548)" fill="#f15a31"/>
            <path id="Path_4581" data-name="Path 4581" d="M1407.191,890.111a4.432,4.432,0,0,1-3.964,3.942,3.527,3.527,0,0,1-1.646-.331l-2.993,5.624a8.5,8.5,0,0,0,4.639,1.13c5.017-.225,9.115-4.75,9.579-10.318Z" transform="translate(-1393.482 -878.461)" fill="#fff"/>
            <path id="Path_4582" data-name="Path 4582" d="M1375.79,883.5l3-5.626a4.66,4.66,0,0,1-1.482-3.5,5.262,5.262,0,0,1,.1-1.011l-5.365-2.053a12.593,12.593,0,0,0-.433,3.28A11.028,11.028,0,0,0,1375.79,883.5Z" transform="translate(-1371.604 -863.218)" fill="#fff"/>
          </g>
          <g id="Group_3194" data-name="Group 3194" transform="translate(47.256 14.273)">
            <path id="Path_4583" data-name="Path 4583" d="M1492.3,834.1a4.18,4.18,0,0,1,3.017-2.482l.092-6.364c-3.722.278-6.906,3.026-8.326,6.814Z" transform="translate(-1486.296 -825.24)" fill="#fff"/>
            <path id="Path_4584" data-name="Path 4584" d="M1536.131,831.547a4.111,4.111,0,0,1,3.312,3.931l5.465.054c-.07-5.626-3.863-10.095-8.685-10.343Z" transform="translate(-1526.061 -825.188)" fill="#fff"/>
            <path id="Path_4585" data-name="Path 4585" d="M1517.544,885.927a4.339,4.339,0,0,1-3.858,3.887,3.4,3.4,0,0,1-1.6-.327l-2.912,5.546a8.179,8.179,0,0,0,4.513,1.118c4.882-.219,8.871-4.681,9.323-10.174Z" transform="translate(-1504.205 -874.433)" fill="#fff"/>
            <path id="Path_4586" data-name="Path 4586" d="M1486.99,879.37l2.915-5.547a4.628,4.628,0,0,1-1.442-3.45,5.25,5.25,0,0,1,.1-1l-5.22-2.028a12.575,12.575,0,0,0-.421,3.235A10.941,10.941,0,0,0,1486.99,879.37Z" transform="translate(-1482.917 -859.368)" fill="#f15a31"/>
          </g>
        </g>
      </g>
      <g id="Group_3197" data-name="Group 3197" transform="translate(230.214 171.932)">
        <path id="Path_4587" data-name="Path 4587" d="M1430.035,1112.314a3.407,3.407,0,0,0,3.076-6.057c-.08-.041-.162-.075-.244-.107a19.639,19.639,0,0,0,.649-2.792c.088,0,.177,0,.268-.01a3.555,3.555,0,0,0,3.125-3.618,3.01,3.01,0,0,0-3.258-3.049c-.092.008-.183.023-.273.039a17.983,17.983,0,0,0-.754-2.666c.081-.048.161-.1.24-.152a3.555,3.555,0,0,0,1.077-4.657,3.01,3.01,0,0,0-4.384-.831c-.077.054-.15.113-.222.172a15.87,15.87,0,0,0-1.955-1.825c.05-.082.1-.164.142-.25.849-1.673,1.959-3.5.4-4.26-3.6-1.758-5.147-.253-6,1.42-.044.086-.082.175-.119.263a15.923,15.923,0,0,0-2.627-.5c.005-.093.01-.186.008-.28-.037-1.841.509-2.837-1.26-2.872-3.858-.075-5.16,1.6-5.122,3.44,0,.1.01.19.019.284a17.923,17.923,0,0,0-2.6.964c-.04-.082-.082-.164-.13-.243a3.01,3.01,0,0,0-4.384-.831,3.554,3.554,0,0,0-1.077,4.657c.047.078.1.15.15.222a19.58,19.58,0,0,0-1.871,2.171c-.075-.047-.15-.093-.231-.133a3.408,3.408,0,0,0-3.076,6.057c.08.041.162.075.244.107a19.583,19.583,0,0,0-.648,2.792c-.089,0-.177,0-.268.01a3.554,3.554,0,0,0-3.124,3.618,3.01,3.01,0,0,0,3.258,3.048c.092-.008.183-.022.273-.039a17.989,17.989,0,0,0,.755,2.666c-.081.048-.162.1-.24.151a3.554,3.554,0,0,0-1.077,4.657,4.409,4.409,0,0,0,5.444,1.163c.078-.054-.911-.444-.839-.5a15.971,15.971,0,0,0,1.955,1.825c-.05.081-.1.164-.142.25a3.147,3.147,0,1,0,5.594,2.84c.044-.087.082-.175.119-.263a15.9,15.9,0,0,0,2.627.5c-.005.093-.01.186-.008.281a3.01,3.01,0,0,0,3.258,3.049,3.554,3.554,0,0,0,3.125-3.617c0-.1-.01-.19-.02-.284a17.934,17.934,0,0,0,2.6-.964c.04.082.082.164.13.243a3.01,3.01,0,0,0,4.384.832,3.554,3.554,0,0,0,1.077-4.657c-.047-.078-.1-.15-.15-.222a19.555,19.555,0,0,0,1.871-2.171C1429.879,1112.228,1429.955,1112.274,1430.035,1112.314Zm-19.258.245c-5.609-2.848-7.656-10.079-4.572-16.153s10.13-8.688,15.739-5.84,7.656,10.08,4.573,16.153S1416.386,1115.406,1410.777,1112.559Z" transform="translate(-1395.813 -1080.277)" fill="#cc2f0a"/>
        <path id="Path_4588" data-name="Path 4588" d="M1504.232,1118.2a3.554,3.554,0,0,0,3.125-3.618,3.01,3.01,0,0,0-3.258-3.049c-.092.008-.183.023-.272.039a17.976,17.976,0,0,0-.755-2.666c.081-.047.162-.1.241-.152,1.508-1.056,3.373-3.609,2.309-5.023-2.019-2.684-4.109-1.522-5.617-.466-.077.054-.15.113-.222.172a15.918,15.918,0,0,0-1.956-1.825c.05-.081.1-.164.142-.25a3.509,3.509,0,0,0,.2-2.767q-2.185,3.845-4.3,7.726c4.475,3.279,5.9,9.74,3.1,15.249a12.35,12.35,0,0,1-11.682,6.961c-.205.532-.407,1.067-.626,1.594-.6,1.43-1.274,2.831-1.952,4.23q.64.12,1.285.189c-.005.093-.01.186-.008.281.037,1.841,1.154,3.4,4.349,3.235,1.767-.094,2.071-1.963,2.034-3.8,0-.1-.01-.19-.019-.284a17.933,17.933,0,0,0,2.6-.964c.04.082.082.164.13.243.913,1.516,4.081,2.16,5.589,1.1s.785-3.413-.128-4.929c-.047-.078-.1-.15-.15-.222a19.562,19.562,0,0,0,1.871-2.171c.075.047.151.093.231.133a3.408,3.408,0,0,0,3.076-6.058c-.08-.041-.162-.075-.244-.107a19.618,19.618,0,0,0,.648-2.791C1504.053,1118.208,1504.142,1118.207,1504.232,1118.2Z" transform="translate(-1466.262 -1095.128)" fill="#cc2f0a"/>
        <path id="Path_4589" data-name="Path 4589" d="M1438.816,1112.511a3.408,3.408,0,0,0,3.076-6.057c-.08-.04-.162-.075-.244-.107a19.514,19.514,0,0,0,.648-2.792c.089,0,.178,0,.268-.01a3.554,3.554,0,0,0,3.124-3.617,3.01,3.01,0,0,0-3.258-3.049c-.092.008-.183.023-.273.039a17.937,17.937,0,0,0-.754-2.666c.081-.047.162-.1.241-.152a3.554,3.554,0,0,0,1.077-4.657,3.01,3.01,0,0,0-4.384-.832c-.077.054-.15.113-.222.172a15.9,15.9,0,0,0-1.956-1.825c.05-.082.1-.164.142-.251a3.147,3.147,0,1,0-5.594-2.84c-.044.086-.082.175-.118.263a15.919,15.919,0,0,0-2.628-.5c.005-.093.01-.186.008-.281a3.01,3.01,0,0,0-3.258-3.049,3.554,3.554,0,0,0-3.124,3.618c0,.1.01.19.02.284a17.983,17.983,0,0,0-2.6.964c-.04-.082-.082-.164-.13-.243a3.01,3.01,0,0,0-4.384-.831,3.554,3.554,0,0,0-1.077,4.657c.047.078.1.15.15.222a19.616,19.616,0,0,0-1.871,2.171c-.075-.047-.15-.093-.23-.133a3.407,3.407,0,0,0-3.075,6.057c.08.04.161.075.244.108a19.586,19.586,0,0,0-.649,2.792c-.089,0-.177,0-.268.01a3.555,3.555,0,0,0-3.124,3.618,3.009,3.009,0,0,0,3.258,3.048c.092-.008.183-.022.273-.038a17.963,17.963,0,0,0,.755,2.666c-.081.047-.162.1-.24.152a3.554,3.554,0,0,0-1.077,4.657,3.01,3.01,0,0,0,4.384.831c.077-.054.15-.112.222-.172a15.925,15.925,0,0,0,1.955,1.825c-.05.082-.1.164-.142.251a3.147,3.147,0,1,0,5.594,2.84c.044-.087.082-.175.119-.263a15.942,15.942,0,0,0,2.627.5c-.005.093-.01.186-.008.28a3.01,3.01,0,0,0,3.258,3.048,3.554,3.554,0,0,0,3.124-3.617c0-.1-.01-.19-.02-.284a17.959,17.959,0,0,0,2.6-.964c.04.082.082.164.13.243a3.01,3.01,0,0,0,4.384.831,3.554,3.554,0,0,0,1.077-4.657c-.047-.078-.1-.15-.15-.222a19.579,19.579,0,0,0,1.871-2.171C1438.66,1112.425,1438.736,1112.471,1438.816,1112.511Zm-19.258.244c-5.609-2.848-7.656-10.08-4.573-16.153s10.13-8.688,15.739-5.84,7.656,10.08,4.573,16.153S1425.167,1115.6,1419.558,1112.756Z" transform="translate(-1402.932 -1080.285)" fill="#f15a31"/>
      </g>
      <g id="Group_3198" data-name="Group 3198" transform="translate(267.419 115.948)">
        <path id="Path_4590" data-name="Path 4590" d="M1665.7,853.031a7.3,7.3,0,0,0,6.585-12.97c-.171-.087-.346-.16-.522-.23a41.972,41.972,0,0,0,1.389-5.977c.189,0,.38,0,.573-.021a7.61,7.61,0,0,0,6.69-7.746,6.445,6.445,0,0,0-6.976-6.528c-.2.018-.391.049-.584.083a38.447,38.447,0,0,0-1.615-5.708c.174-.1.346-.207.515-.325a7.61,7.61,0,0,0,2.306-9.972,6.445,6.445,0,0,0-9.386-1.78c-.166.116-.321.241-.475.368a34.107,34.107,0,0,0-4.187-3.908c.106-.175.21-.351.3-.537,1.819-3.581,4.195-7.494.861-9.121-7.712-3.765-11.021-.542-12.84,3.04-.094.186-.175.374-.253.563a34.1,34.1,0,0,0-5.626-1.074c.012-.2.021-.4.017-.6-.079-3.941,1.091-6.074-2.7-6.148-8.261-.16-11.048,3.425-10.969,7.366,0,.206.021.408.042.608a38.475,38.475,0,0,0-5.562,2.064c-.086-.176-.175-.351-.277-.52a6.445,6.445,0,0,0-9.387-1.78,7.61,7.61,0,0,0-2.305,9.972c.1.166.21.322.321.475a41.949,41.949,0,0,0-4.006,4.648c-.16-.1-.322-.2-.494-.286a7.3,7.3,0,0,0-6.585,12.97c.171.087.346.16.522.23a41.966,41.966,0,0,0-1.389,5.978c-.189,0-.38,0-.573.021a7.611,7.611,0,0,0-6.69,7.746,6.445,6.445,0,0,0,6.976,6.528c.2-.018.391-.049.584-.083a38.39,38.39,0,0,0,1.616,5.708c-.174.1-.347.207-.515.325a7.61,7.61,0,0,0-2.306,9.972c1.955,3.245,8.429,4.753,11.658,2.491.166-.116-1.95-.952-1.8-1.079a34.156,34.156,0,0,0,4.187,3.908c-.106.174-.21.351-.3.537a6.738,6.738,0,1,0,11.979,6.082c.094-.186.176-.374.253-.563a34.1,34.1,0,0,0,5.626,1.074c-.012.2-.021.4-.017.6a6.445,6.445,0,0,0,6.976,6.527,7.61,7.61,0,0,0,6.69-7.746c0-.206-.021-.407-.042-.607a38.451,38.451,0,0,0,5.562-2.064c.086.176.175.351.277.52a6.445,6.445,0,0,0,9.387,1.78,7.611,7.611,0,0,0,2.306-9.972c-.1-.166-.21-.321-.321-.475a41.969,41.969,0,0,0,4.006-4.648C1665.363,852.846,1665.526,852.944,1665.7,853.031Zm-41.235.523c-12.01-6.1-16.393-21.583-9.791-34.587s21.69-18.6,33.7-12.505,16.393,21.583,9.791,34.587S1636.472,859.651,1624.462,853.554Z" transform="translate(-1592.421 -784.433)" fill="#07874d"/>
        <path id="Path_4591" data-name="Path 4591" d="M1824.567,865.629a7.611,7.611,0,0,0,6.69-7.746,6.445,6.445,0,0,0-6.976-6.528c-.2.018-.391.049-.584.083a38.455,38.455,0,0,0-1.616-5.708c.174-.1.346-.207.515-.325,3.229-2.262,7.223-7.727,4.945-10.755-4.323-5.746-8.8-3.259-12.026-1-.165.116-.321.241-.475.368a34.107,34.107,0,0,0-4.187-3.908c.106-.175.211-.351.3-.537a7.515,7.515,0,0,0,.424-5.926q-4.678,8.233-9.217,16.542c9.581,7.021,12.631,20.856,6.643,32.652-5.075,10-15.163,15.608-25.013,14.9-.439,1.14-.871,2.285-1.341,3.414-1.277,3.063-2.728,6.062-4.18,9.058q1.37.258,2.751.4c-.012.2-.021.4-.017.6.079,3.942,2.472,7.29,9.311,6.927,3.784-.2,4.434-4.2,4.355-8.146,0-.206-.021-.407-.042-.607a38.476,38.476,0,0,0,5.562-2.064c.086.176.176.35.278.52,1.955,3.245,8.739,4.624,11.967,2.362s1.68-7.308-.275-10.554c-.1-.166-.21-.322-.322-.475a41.928,41.928,0,0,0,4.006-4.648c.16.1.322.2.494.285a7.3,7.3,0,0,0,6.585-12.97c-.172-.087-.346-.16-.522-.23a41.907,41.907,0,0,0,1.389-5.977C1824.183,865.649,1824.374,865.646,1824.567,865.629Z" transform="translate(-1743.265 -816.23)" fill="#07874d"/>
        <path id="Path_4592" data-name="Path 4592" d="M1684.5,853.452a7.3,7.3,0,0,0,6.585-12.97c-.171-.087-.346-.16-.522-.23a41.9,41.9,0,0,0,1.389-5.978c.19,0,.38,0,.573-.021a7.61,7.61,0,0,0,6.69-7.746,6.445,6.445,0,0,0-6.976-6.528c-.2.018-.391.049-.583.083a38.485,38.485,0,0,0-1.616-5.708c.174-.1.347-.207.515-.325a7.61,7.61,0,0,0,2.306-9.972,6.445,6.445,0,0,0-9.386-1.78c-.166.116-.321.241-.475.368a34.07,34.07,0,0,0-4.187-3.908c.106-.174.211-.351.3-.537a6.738,6.738,0,1,0-11.979-6.082c-.094.185-.175.374-.253.563a34.11,34.11,0,0,0-5.626-1.074c.012-.2.021-.4.017-.6a6.445,6.445,0,0,0-6.976-6.528,7.61,7.61,0,0,0-6.69,7.746c0,.206.021.407.042.608a38.485,38.485,0,0,0-5.562,2.064c-.086-.176-.175-.351-.277-.52a6.445,6.445,0,0,0-9.387-1.78,7.611,7.611,0,0,0-2.306,9.972c.1.166.21.322.322.475a41.922,41.922,0,0,0-4.006,4.648c-.16-.1-.322-.2-.494-.285a7.3,7.3,0,0,0-6.585,12.97c.172.087.346.16.522.23a41.932,41.932,0,0,0-1.389,5.977c-.189,0-.38,0-.573.021a7.61,7.61,0,0,0-6.69,7.746,6.445,6.445,0,0,0,6.976,6.527c.2-.018.391-.049.583-.083a38.47,38.47,0,0,0,1.616,5.708c-.174.1-.346.206-.515.325a7.61,7.61,0,0,0-2.306,9.972,6.445,6.445,0,0,0,9.387,1.78c.165-.116.321-.241.475-.368a34.093,34.093,0,0,0,4.187,3.908c-.106.175-.211.351-.3.537a6.738,6.738,0,1,0,11.978,6.082c.094-.185.176-.374.253-.562a34.1,34.1,0,0,0,5.626,1.074c-.012.2-.021.4-.017.6a6.445,6.445,0,0,0,6.976,6.528,7.61,7.61,0,0,0,6.69-7.746c0-.206-.021-.407-.042-.607a38.458,38.458,0,0,0,5.562-2.064c.086.176.175.351.278.52a6.445,6.445,0,0,0,9.386,1.78,7.611,7.611,0,0,0,2.306-9.972c-.1-.166-.21-.322-.321-.475a41.967,41.967,0,0,0,4.006-4.649C1684.164,853.267,1684.327,853.365,1684.5,853.452Zm-41.234.523c-12.01-6.1-16.394-21.582-9.791-34.587s21.691-18.6,33.7-12.505,16.393,21.582,9.791,34.587S1655.274,860.073,1643.264,853.975Z" transform="translate(-1607.664 -784.45)" fill="#15a165"/>
      </g>
      <g id="Group_3199" data-name="Group 3199" transform="translate(69.325 117.844)">
        <path id="Path_4593" data-name="Path 4593" d="M547.416,880.23a.3.3,0,0,1-.3-.3V800.02a.3.3,0,0,1,.593,0v79.914A.3.3,0,0,1,547.416,880.23Z" transform="translate(-546.834 -798.726)" fill="#4b4c4b"/>
        <path id="Path_4594" data-name="Path 4594" d="M731.9,878.588a.3.3,0,0,1-.3-.3V800.02a.3.3,0,0,1,.593,0v78.271A.3.3,0,0,1,731.9,878.588Z" transform="translate(-696.411 -798.726)" fill="#4b4c4b"/>
        <path id="Path_4595" data-name="Path 4595" d="M623.455,892.668a.3.3,0,0,1-.288-.228L602.2,803.877a.3.3,0,0,1,.577-.137L623.744,892.3a.3.3,0,0,1-.22.357A.288.288,0,0,1,623.455,892.668Z" transform="translate(-591.487 -801.797)" fill="#4b4c4b"/>
        <path id="Path_4596" data-name="Path 4596" d="M792.634,888.316a.3.3,0,0,1-.287-.223l-21.481-84.21a.3.3,0,0,1,.575-.147l21.481,84.21a.3.3,0,0,1-.214.361A.3.3,0,0,1,792.634,888.316Z" transform="translate(-728.232 -801.798)" fill="#4b4c4b"/>
        <path id="Path_4597" data-name="Path 4597" d="M589.764,796.534l-33.439.717-10.714-.717v-1.578l24.916-.505,19.237.505Z" transform="translate(-545.611 -794.451)" fill="#4b4c4b"/>
        <path id="Path_4598" data-name="Path 4598" d="M635.669,798.7l-33.439.717v-1.578l33.439-.717Z" transform="translate(-591.516 -796.616)" fill="#4b4c4b"/>
        <path id="Path_4599" data-name="Path 4599" d="M626.414,897.65a.3.3,0,0,1-.016-.593l31.5-1.754a.3.3,0,0,1,.033.592l-31.5,1.754Z" transform="translate(-610.883 -876.218)" fill="#4b4c4b"/>
        <path id="Path_4600" data-name="Path 4600" d="M648.438,989.049a.3.3,0,0,1-.019-.592l32.036-2.137a.3.3,0,0,1,.04.592l-32.036,2.137Z" transform="translate(-628.739 -950.011)" fill="#4b4c4b"/>
        <path id="Path_4601" data-name="Path 4601" d="M670.335,1080.177a.3.3,0,0,1-.022-.592l32.267-2.458a.3.3,0,0,1,.045.592l-32.267,2.457Z" transform="translate(-646.492 -1023.634)" fill="#4b4c4b"/>
        <path id="Path_4602" data-name="Path 4602" d="M692.106,1170.278a.3.3,0,0,1-.026-.592l32.465-2.9a.3.3,0,1,1,.053.591l-32.465,2.895Z" transform="translate(-664.144 -1096.33)" fill="#4b4c4b"/>
      </g>
      <path id="Path_4603" data-name="Path 4603" d="M1151.775,1477.5h-.4a.284.284,0,0,0,0,.568h.4a.284.284,0,1,0,0-.568Z" transform="translate(-967.184 -1230.399)" fill="#ebeff2"/>
    </g>
    <g id="Group_3210" data-name="Group 3210" transform="translate(71.038 58.683)">
      <g id="Group_3203" data-name="Group 3203" transform="translate(2.491 8.338)">
        <path id="Path_4604" data-name="Path 4604" d="M4628.845,539.331s4,.037,5.937-1.816,4.493-11.42,1.413-12.728c-1.487-.631-1.864,6.61-3.78,9a23.336,23.336,0,0,1-4.608,4.176,1.063,1.063,0,0,0,.2.928A1.283,1.283,0,0,0,4628.845,539.331Z" transform="translate(-4625.194 -523.409)" fill="#787878"/>
        <path id="Path_4605" data-name="Path 4605" d="M4553.165,511.555a6.007,6.007,0,0,0,.618.123,21.709,21.709,0,0,0,4.589.148,28.752,28.752,0,0,0,4.512-.542c.268-.061.391-.1.391-.1-.126-.62-.419-1.483-2.083-7.788-.838-3.182-2.309-4.8-2.651-4.872l-.016,0a3.03,3.03,0,0,0-1.3-.05,5.294,5.294,0,0,0-1.036.427.475.475,0,0,0-.142.094c-.776.686-2.809,4.638-2.874,6.03C4553.1,506.507,4553.165,511.555,4553.165,511.555Z" transform="translate(-4547.046 -498.422)" fill="#6d6d6d"/>
        <path id="Path_4606" data-name="Path 4606" d="M4647.093,547.73s2.183,5.161,5.376,5.41c2.6.2,6.39-5.776,6.052-9.158s-2.32-1.591-2.32-1.591c-1.284.773-3.788,4.949-4.679,5.407s-3.009-1.285-3.009-1.285a1.453,1.453,0,0,0-.36.055,1.935,1.935,0,0,0-.186.06,2.185,2.185,0,0,0-.333.155,1.041,1.041,0,0,0-.423.505c-.011.026-.02.05-.029.075A1.566,1.566,0,0,0,4647.093,547.73Z" transform="translate(-4647.093 -539.705)" fill="#787878"/>
        <g id="Group_3202" data-name="Group 3202" transform="translate(4.428 12.861)">
          <path id="Path_4607" data-name="Path 4607" d="M4454.1,770.6s.978.262,2.515.505l.256.04a33.291,33.291,0,0,0,3.713.351c.518.019,1.051.026,1.6.015l.259-.006c.505-.015,1.019-.045,1.534-.093.194-.018.386-.038.572-.058.793-.087,1.5-.191,2.131-.306a19.47,19.47,0,0,0,2.938-.746,7,7,0,0,0,1.325-.581,110.543,110.543,0,0,0-3.313-12.916,45.458,45.458,0,0,0-2.118-5.546,28.772,28.772,0,0,1-4.51.542,21.727,21.727,0,0,1-4.591-.148c-.213,1.959-.942,6.4-1.539,10.71C4454.36,766.033,4454.1,770.6,4454.1,770.6Z" transform="translate(-4454.099 -751.255)" fill="#383838"/>
          <g id="Group_3201" data-name="Group 3201" transform="translate(5.971 0.845)">
            <path id="Path_4608" data-name="Path 4608" d="M4658.9,768.858l-.056-.992-.419.022.055.994Z" transform="translate(-4658.422 -767.866)" fill="#7a7a7a"/>
            <path id="Path_4609" data-name="Path 4609" d="M4657.225,796.146l-.062-.991-.42.025.063.993Z" transform="translate(-4656.665 -793.767)" fill="#7a7a7a"/>
            <path id="Path_4610" data-name="Path 4610" d="M4655.383,823.431l-.069-.991-.419.028.067.993Z" transform="translate(-4654.729 -819.664)" fill="#7a7a7a"/>
            <path id="Path_4611" data-name="Path 4611" d="M4653.388,850.707l-.074-.991-.419.03.074.992Z" transform="translate(-4652.632 -845.553)" fill="#7a7a7a"/>
            <path id="Path_4612" data-name="Path 4612" d="M4651.188,877.971c-.028-.329-.056-.658-.08-.989l-.421.033q.04.5.082.993Z" transform="translate(-4650.32 -871.431)" fill="#7a7a7a"/>
            <path id="Path_4613" data-name="Path 4613" d="M4648.618,905.177c-.035-.329-.064-.659-.095-.988l-.42.039c.032.331.061.662.1.991Z" transform="translate(-4647.619 -897.254)" fill="#7a7a7a"/>
            <path id="Path_4614" data-name="Path 4614" d="M4645.8,932.372l-.1-.988-.417.043.1.99Z" transform="translate(-4644.657 -923.065)" fill="#7a7a7a"/>
            <rect id="Rectangle_3340" data-name="Rectangle 3340" width="0.994" height="0.421" transform="translate(0.876 10.735) rotate(-96.271)" fill="#7a7a7a"/>
            <path id="Path_4615" data-name="Path 4615" d="M4639.777,986.747l-.11-.988-.419.047.113.988Z" transform="translate(-4638.327 -974.676)" fill="#7a7a7a"/>
            <path id="Path_4616" data-name="Path 4616" d="M4636.64,1013.927l-.115-.987-.417.048.115.988Z" transform="translate(-4635.03 -1000.473)" fill="#7a7a7a"/>
            <path id="Path_4617" data-name="Path 4617" d="M4633.445,1041.1l-.116-.987-.418.049.116.988Z" transform="translate(-4631.672 -1026.264)" fill="#7a7a7a"/>
            <path id="Path_4618" data-name="Path 4618" d="M4630.2,1068.269l-.119-.987-.417.05.119.988Z" transform="translate(-4628.263 -1052.051)" fill="#7a7a7a"/>
            <path id="Path_4619" data-name="Path 4619" d="M4626.909,1095.433l-.12-.987-.417.051.12.987Z" transform="translate(-4624.805 -1077.833)" fill="#7a7a7a"/>
            <path id="Path_4620" data-name="Path 4620" d="M4623.574,1122.591l-.121-.987-.419.051.123.987Z" transform="translate(-4621.299 -1103.61)" fill="#7a7a7a"/>
          </g>
        </g>
      </g>
      <g id="Group_3206" data-name="Group 3206" transform="translate(9.435 40.989)">
        <g id="Group_3204" data-name="Group 3204" transform="translate(0 0.056)">
          <path id="Path_4621" data-name="Path 4621" d="M4649.037,1479.227c.016.1.03.183.039.249.139.738-3.868,1.375-4.125.821.009-.013.071-.072.17-.163A5.106,5.106,0,0,0,4649.037,1479.227Z" transform="translate(-4644.465 -1462.043)" fill="#383838"/>
          <path id="Path_4622" data-name="Path 4622" d="M4648.7,1463.733a2.453,2.453,0,0,0,.88-.573c.057.291.114.588.154.817a5.1,5.1,0,0,1-3.916.908c.2-.181.538-.486.892-.8A5.126,5.126,0,0,0,4648.7,1463.733Z" transform="translate(-4645.161 -1446.793)" fill="#fc5029"/>
          <path id="Path_4623" data-name="Path 4623" d="M4623.984,1157.772a2.457,2.457,0,0,1-.88.573,5.124,5.124,0,0,1-1.99.353c.579-.515,1.187-1.049,1.215-1.076a1.7,1.7,0,0,0,.534-1.175s-1.978-8.153-2.4-10.6c-.162-.931-.551-2.788-.891-4.447l.256.04a33.339,33.339,0,0,0,3.712.352c.52.019,1.054.025,1.6.015l.258-.006a15.491,15.491,0,0,1,.055,2.724,106.671,106.671,0,0,1-1.677,12.175S4623.876,1157.226,4623.984,1157.772Z" transform="translate(-4619.567 -1141.405)" fill="#b5b5b5"/>
        </g>
        <g id="Group_3205" data-name="Group 3205" transform="translate(3.969)">
          <path id="Path_4624" data-name="Path 4624" d="M4470.384,1460.773c.131.258.259.518.354.718a7.224,7.224,0,0,1-3.733,1.9c.284-.39.8-1.076,1.189-1.609A3.027,3.027,0,0,0,4470.384,1460.773Z" transform="translate(-4461.042 -1444.471)" fill="#fc5029"/>
          <path id="Path_4625" data-name="Path 4625" d="M4469.086,1475.1c.067,1.061-3.646,2.453-4.044,1.989.006-.018.087-.133.212-.305a7.23,7.23,0,0,0,3.733-1.9C4469.027,1474.966,4469.062,1475.039,4469.086,1475.1Z" transform="translate(-4459.289 -1457.863)" fill="#383838"/>
          <path id="Path_4626" data-name="Path 4626" d="M4475.574,1140.757c.588-.012,1.189-.043,1.793-.1.2-.018.386-.037.572-.058.792-.087,1.5-.191,2.13-.306a10.935,10.935,0,0,1,1.054,3.113,106.3,106.3,0,0,1,1.679,12.175s.261.5.52,1.014a3.029,3.029,0,0,1-2.189,1.007c.3-.406.522-.724.535-.747a1.922,1.922,0,0,0,.2-1.275s-4.11-7.314-5.18-9.551c-.529-1.1-1.837-3.59-2.7-5.289C4474.5,1140.762,4475.03,1140.768,4475.574,1140.757Z" transform="translate(-4473.979 -1140.295)" fill="#dcdcdc"/>
        </g>
      </g>
      <path id="Path_4627" data-name="Path 4627" d="M4384.618,336.713a1.346,1.346,0,0,0,.4.8,2.575,2.575,0,0,1,.817,1.839,3.44,3.44,0,0,0,2.633,3.24c.318.09.626.094.861.168,1.236.389,1.808,2.119,2.18,3.074.448,1.143,1.144,1.542,2.238,4.127,1.243,2.933,5.268.92,5.268.92a4.5,4.5,0,0,1,1.028-2.455c1.046-1.034,2.271-.638,2.836-1.83.581-1.223-.406-2.774-.374-3.023a3.851,3.851,0,0,0,.618-2.3s-.15-1.2-1.894-1.35-2.054-.79-4.118-2.265c-2.089-1.492-4.6-1.015-5.767-2a5.19,5.19,0,0,0-4.259-1.061C4385.222,334.852,4384.579,335.887,4384.618,336.713Z" transform="translate(-4375.87 -334.519)" fill="#494949"/>
      <path id="Path_4628" data-name="Path 4628" d="M4646.509,374.014a4.725,4.725,0,0,0,.31,1.551c.233.282,1.591.041,1.591.041a3.317,3.317,0,0,1,.829,1.591,2.545,2.545,0,0,1-.044.467.484.484,0,0,1,.143-.094,5.26,5.26,0,0,1,1.036-.427,3.033,3.033,0,0,1,1.3.05,7.446,7.446,0,0,1-2.172-2.074c-.426-.839-1.1-.6-1.612-1.657a7.235,7.235,0,0,1-.447-2.869,1.5,1.5,0,0,0-.58.81,3.362,3.362,0,0,0-.11,1.335A4.827,4.827,0,0,1,4646.509,374.014Z" transform="translate(-4637.705 -368.76)" fill="#dcdcdc"/>
      <path id="Path_4629" data-name="Path 4629" d="M4737.945,442.379a.179.179,0,0,1-.162-.016.635.635,0,0,0-.236-.1.4.4,0,0,0-.114.023.188.188,0,0,0-.031.2c.023.071.038.065.038.065a.292.292,0,0,0,.01.189c.026.063.1.1.264.028S4737.945,442.379,4737.945,442.379Z" transform="translate(-4728.599 -436.781)" fill="#f15a31"/>
      <path id="Path_4630" data-name="Path 4630" d="M4730.363,408.961a.363.363,0,0,0-.226-.335c-.193-.084-.282-.042-.282-.042a.711.711,0,0,0-.107.259.578.578,0,0,0,.227.418A.5.5,0,0,0,4730.363,408.961Z" transform="translate(-4720.629 -404.806)" fill="#c9c9c9"/>
      <path id="Path_4631" data-name="Path 4631" d="M4741.652,413.886l-.322.157s-.283-.214-.312-.3.255-.216.516-.706a.457.457,0,0,0,.041-.269A3.286,3.286,0,0,1,4741.652,413.886Z" transform="translate(-4732.526 -408.788)" fill="#c9c9c9"/>
      <path id="Path_4632" data-name="Path 4632" d="M4744.02,433.584s-.272-.08-.3-.029.027.091.027.091Z" transform="translate(-4734.994 -428.501)" fill="#9f9f9f"/>
      <g id="Group_3207" data-name="Group 3207" transform="translate(8.869 3.261)">
        <path id="Path_4633" data-name="Path 4633" d="M4729.338,414.256s-.255-.044-.453-.1-.217-.018-.285.033-.208.052-.2.087a.412.412,0,0,0,.254.141A.978.978,0,0,0,4729.338,414.256Z" transform="translate(-4728.401 -413.338)" fill="#494949"/>
        <path id="Path_4634" data-name="Path 4634" d="M4728.209,399.012a1.118,1.118,0,0,0-.492-.141l-.3.03a.17.17,0,0,1-.073-.134c-.015-.107.1-.146.1-.146s.267,0,.4.01S4728.209,399.012,4728.209,399.012Z" transform="translate(-4727.218 -398.62)" fill="#494949"/>
      </g>
      <g id="Group_3209" data-name="Group 3209" transform="translate(0 12.546)">
        <path id="Path_4635" data-name="Path 4635" d="M4855.118,582.664c-.048.092.454.346.454.346l.616.225s.206.171.559.446a2.181,2.181,0,0,0,.56.333l.272.506a1.037,1.037,0,0,1,.423-.505,2.223,2.223,0,0,1,.333-.155l-.249-.223a.393.393,0,0,0,.013-.1,2.069,2.069,0,0,0-.162-.84c-.175-.329-.274-.691-.346-.843a2.421,2.421,0,0,0-.26-.377s-.159.021-.025.318a1.232,1.232,0,0,1,.114.689,2.16,2.16,0,0,1-.577-.311c-.213-.182-.781-.744-.932-.874s-.312-.21-.345-.1.574.74.646.83.225.251.241.269a5.266,5.266,0,0,1-.683-.471c-.086-.112-.375-.473-.467-.429s.275.63.3.673.588.533.588.533l-.621-.314s-.518-.425-.6-.342.5.561.5.561l.564.412-.474-.15S4855.167,582.572,4855.118,582.664Z" transform="translate(-4854.969 -581.145)" fill="#dcdcdc"/>
        <g id="Group_3208" data-name="Group 3208" transform="translate(1.64 10.263)">
          <path id="Path_4636" data-name="Path 4636" d="M4808.86,784.2c.109-.02.34-.083.34-.083a5.04,5.04,0,0,1-.715.374c-.135.022-.575.1-.579.2s.659.062.708.058.723-.261.723-.261l-.553.4s-.6.252-.567.362.7-.169.7-.169l.61-.3-.346.345s-.354.255-.3.342.5-.233.5-.233l.477-.434s.24-.1.635-.277a2.051,2.051,0,0,0,.541-.332l.873.007a.979.979,0,0,0-.017-.611c-.175-.469-.386-.512-.386-.512l-.428.249a.374.374,0,0,0-.081-.061,1.947,1.947,0,0,0-.786-.261c-.359-.005-.711-.091-.873-.1a2.245,2.245,0,0,0-.441.047s-.055.15.258.176a1.166,1.166,0,0,1,.637.229,2.361,2.361,0,0,1-.409.3,1.079,1.079,0,0,1-.122.058c-.252.1-.991.327-1.171.4s-.321.173-.241.257S4808.75,784.224,4808.86,784.2Z" transform="translate(-4807.834 -782.905)" fill="#dcdcdc"/>
          <path id="Path_4637" data-name="Path 4637" d="M4829.169,792.121c.033.076.095.2.2.39a4.077,4.077,0,0,0,.352.542.851.851,0,0,1,.214-.427,2.574,2.574,0,0,1,.717-.462.911.911,0,0,1-.546-.018,2.58,2.58,0,0,1-.527-.327A2.373,2.373,0,0,1,4829.169,792.121Z" transform="translate(-4827.611 -791.366)" fill="#c9c9c9"/>
        </g>
      </g>
    </g>
    <g id="Group_3215" data-name="Group 3215" transform="translate(141.657 118.334)">
      <path id="Path_4638" data-name="Path 4638" d="M-1291.049,1532.936a17.664,17.664,0,0,1-2.9-.212,2.475,2.475,0,0,1-.009-.341,3.9,3.9,0,0,1,.081-.726c.055-.237.1-.466.131-.672a5.462,5.462,0,0,1,1.668.28c.237.369.623.986.868,1.4C-1291.145,1532.77-1291.088,1532.865-1291.049,1532.936Z" transform="translate(1299.919 -1471.716)" fill="#929292"/>
      <path id="Path_4639" data-name="Path 4639" d="M-1305.1,1181.058a23.228,23.228,0,0,1-5.107-1.06,26.192,26.192,0,0,0-.45,5.547,103.046,103.046,0,0,0,1.158,11.244s-.023.375-.107.9a5.444,5.444,0,0,1,1.667.28,2.427,2.427,0,0,1-.129-.221c-.273-.545-.514-1.194-.514-1.194s2.15-8.177,2.627-10.63C-1305.628,1184.235-1305.285,1182.179-1305.1,1181.058Z" transform="translate(1315.78 -1138.417)" fill="#dcdcdc"/>
      <path id="Path_4640" data-name="Path 4640" d="M-1291.049,1559.279a17.678,17.678,0,0,1-2.9-.213,2.467,2.467,0,0,1-.009-.341,6.887,6.887,0,0,0,1.375.2c.565.04,1.031.061,1.373.073C-1291.145,1559.112-1291.088,1559.208-1291.049,1559.279Z" transform="translate(1299.919 -1498.059)" fill="#525252"/>
      <path id="Path_4641" data-name="Path 4641" d="M-1138.763,1535.256a20.015,20.015,0,0,1-2.863-.139,2.631,2.631,0,0,1-.011-.343,3.854,3.854,0,0,1,.082-.735c.053-.231.1-.454.128-.656a3,3,0,0,1,1.647.228c.226.361.61.988.865,1.4Z" transform="translate(1155.272 -1473.959)" fill="#929292"/>
      <path id="Path_4642" data-name="Path 4642" d="M-1156.255,1212.693s2.15-8.176,2.627-10.629c.366-1.881.752-4.223.912-5.213a32.209,32.209,0,0,1-5.349.369,28.166,28.166,0,0,0-.264,4.469,102.992,102.992,0,0,0,1.159,11.244s-.024.382-.11.911a2.99,2.99,0,0,1,1.647.229c-.041-.065-.077-.127-.105-.185C-1156.013,1213.343-1156.255,1212.693-1156.255,1212.693Z" transform="translate(1171.128 -1154.421)" fill="#dcdcdc"/>
      <path id="Path_4643" data-name="Path 4643" d="M-1138.763,1562.176a20,20,0,0,1-2.863-.139,2.632,2.632,0,0,1-.011-.343,8.027,8.027,0,0,0,1.2.159c.654.046,1.176.068,1.525.078Z" transform="translate(1155.272 -1500.879)" fill="#525252"/>
      <g id="Group_3213" data-name="Group 3213" transform="translate(4.236 9.617)">
        <path id="Path_4644" data-name="Path 4644" d="M-1287.305,567.235c-.6,6.543-.81,6.5-.938,7.123,0,0,.125.04.4.1-.257.541-.574,1.261-.938,2.193a7.428,7.428,0,0,1-2.627-3.487c-.613-2.385,3.726-9.947,5.043-10.63A15.023,15.023,0,0,0-1287.305,567.235Z" transform="translate(1293.32 -561.686)" fill="#ff8440"/>
        <path id="Path_4645" data-name="Path 4645" d="M-1217.232,558.738a6.169,6.169,0,0,1-.622.124,21.912,21.912,0,0,1-4.625.149c-1.523-.088-2.65-.22-3.44-.342-.5-.077-.861-.149-1.105-.2-.271-.061-.4-.1-.4-.1.128-.625.334-.581.938-7.123a15.016,15.016,0,0,1,.936-4.7h0a6.483,6.483,0,0,1,2.573-.81,6.776,6.776,0,0,1,1.652.026,7.2,7.2,0,0,1,1.045.225,9.23,9.23,0,0,1,2.84,1.581c.25.053.272,1.84.34,3.339S-1217.232,558.738-1217.232,558.738Z" transform="translate(1232.497 -545.691)" fill="#f15a31"/>
        <path id="Path_4646" data-name="Path 4646" d="M-1049.627,588.526s-2.2,5.2-5.418,5.452c-2.623.2-6.133-4.872-5.793-8.28s1.568-3.066,1.568-3.066c1.294.779,4.282,5.5,5.179,5.963s3.033-1.295,3.033-1.295a1.452,1.452,0,0,1,.362.056,2.211,2.211,0,0,1,.523.217,1.083,1.083,0,0,1,.457.584A1.569,1.569,0,0,1-1049.627,588.526Z" transform="translate(1074.331 -580.761)" fill="#ff8440"/>
        <g id="Group_3212" data-name="Group 3212" transform="translate(0 12.773)">
          <path id="Path_4647" data-name="Path 4647" d="M-1311.191,818.647a28.274,28.274,0,0,1-2.793.549,32.245,32.245,0,0,1-5.35.368c-.593-.012-1.2-.043-1.807-.1-.2-.018-.389-.038-.576-.058a23.218,23.218,0,0,1-5.107-1.06,7.018,7.018,0,0,1-1.335-.586,111.325,111.325,0,0,1,3.339-13.016c.435-1.357.838-2.479,1.2-3.4s.681-1.652.938-2.193c.245.055.608.128,1.106.2.79.122,1.917.254,3.439.342a21.9,21.9,0,0,0,4.626-.149,58.377,58.377,0,0,1,1.7,9.937C-1311.494,813.213-1311.191,818.647-1311.191,818.647Z" transform="translate(1328.16 -799.155)" fill="#383838"/>
          <g id="Group_3211" data-name="Group 3211" transform="translate(13.716 0.978)">
            <path id="Path_4648" data-name="Path 4648" d="M-1055.875,819.571l-.095-.96.407-.042.095.963Z" transform="translate(1055.969 -818.569)" fill="#7a7a7a"/>
            <path id="Path_4649" data-name="Path 4649" d="M-1053.279,846.315l-.088-.961.407-.038.088.963Z" transform="translate(1053.498 -843.968)" fill="#7a7a7a"/>
            <path id="Path_4650" data-name="Path 4650" d="M-1050.87,873.07l-.082-.962.407-.036.082.963Z" transform="translate(1051.204 -869.376)" fill="#7a7a7a"/>
            <path id="Path_4651" data-name="Path 4651" d="M-1048.621,899.836l-.077-.962.408-.033.077.964Z" transform="translate(1049.064 -894.796)" fill="#7a7a7a"/>
            <path id="Path_4652" data-name="Path 4652" d="M-1046.526,926.614c-.021-.32-.043-.641-.068-.962l.408-.031q.038.482.069.966Z" transform="translate(1047.066 -920.226)" fill="#7a7a7a"/>
            <path id="Path_4653" data-name="Path 4653" d="M-1044.694,953.445c-.016-.321-.036-.642-.055-.963l.408-.025c.018.322.039.644.055.966Z" transform="translate(1045.314 -945.71)" fill="#7a7a7a"/>
            <path id="Path_4654" data-name="Path 4654" d="M-1043.218,980.28l-.047-.964.408-.021.047.966Z" transform="translate(1043.905 -971.195)" fill="#7a7a7a"/>
            <rect id="Rectangle_3341" data-name="Rectangle 3341" width="0.409" height="0.966" transform="matrix(0.999, -0.044, 0.044, 0.999, 0.706, 9.47)" fill="#7a7a7a"/>
            <path id="Path_4655" data-name="Path 4655" d="M-1040.763,1033.939l-.039-.965.408-.017.04.965Z" transform="translate(1041.567 -1022.154)" fill="#7a7a7a"/>
            <path id="Path_4656" data-name="Path 4656" d="M-1039.684,1060.768l-.037-.965.409-.016.037.966Z" transform="translate(1040.54 -1047.632)" fill="#7a7a7a"/>
            <path id="Path_4657" data-name="Path 4657" d="M-1038.671,1087.6l-.035-.965.409-.015.035.966Z" transform="translate(1039.575 -1073.11)" fill="#7a7a7a"/>
            <path id="Path_4658" data-name="Path 4658" d="M-1037.711,1114.427l-.033-.965.409-.014.033.966Z" transform="translate(1038.662 -1098.588)" fill="#7a7a7a"/>
            <path id="Path_4659" data-name="Path 4659" d="M-1036.8,1141.258l-.032-.965.409-.014.031.966Z" transform="translate(1037.798 -1124.067)" fill="#7a7a7a"/>
            <path id="Path_4660" data-name="Path 4660" d="M-1035.935,1168.09l-.03-.965.409-.013.03.966Z" transform="translate(1036.973 -1149.548)" fill="#7a7a7a"/>
          </g>
        </g>
      </g>
      <path id="Path_4661" data-name="Path 4661" d="M-1134.474,457.782c-.743.144-1.4-.272-1.67.171a4.722,4.722,0,0,0-.318,1.554,7.121,7.121,0,0,0-1.044-.225,6.776,6.776,0,0,0-1.652-.026,5.409,5.409,0,0,0,.766-.894l.015-.023a3.468,3.468,0,0,0,3.41-2.464c.337-.9,1.027-1.013,1.511-1.246,0,.042,0,.083.006.121C-1133.417,455.7-1133.731,457.638-1134.474,457.782Z" transform="translate(1152.918 -449.6)" fill="#dcdcdc"/>
      <path id="Path_4662" data-name="Path 4662" d="M-1392.275,359.394a.821.821,0,0,1-.483.492c-.484.233-1.174.342-1.511,1.246a3.468,3.468,0,0,1-3.41,2.464,5.5,5.5,0,0,1-.883-.062,5.292,5.292,0,0,0-4.5,1.074c-1.278,1.226-1.636,2.5-3.016,3.68s-4.038.613-4.038.613a5.611,5.611,0,0,0,2.351-.665,3.774,3.774,0,0,0,1.124-1.634,3.22,3.22,0,0,1-1.738,1.532,4.006,4.006,0,0,1-1.993-.051,2.307,2.307,0,0,0-.1-1.84c-.46-1.176-1.748-1.434-1.748-2.763a7.733,7.733,0,0,1,.624-2.6,3.872,3.872,0,0,1,0-2.4s.46-1.124,2.2-.818a4.3,4.3,0,0,0,4.038-.767,10.924,10.924,0,0,1,3.884-1.891,6.417,6.417,0,0,1,3.22.2c.91.2,2.2-.511,3.936.256A3.947,3.947,0,0,1-1392.275,359.394Z" transform="translate(1412.219 -354.859)" fill="#545453"/>
      <path id="Path_4663" data-name="Path 4663" d="M-853.606,612.614c-.1.29-1.575,1.258-1.529,1.3s.322.033.292.246a.779.779,0,0,1-.107.307s.2.144.158.291a.531.531,0,0,1-.19.257.212.212,0,0,1,.045.368l-.223.238s-.265.228-.386.219-.451-.048-.429-.1-.19.108-.618.241a2.33,2.33,0,0,1-1.165-.153s-.177.335-.407.692a1.084,1.084,0,0,0-.457-.584,2.208,2.208,0,0,0-.523-.217,5.719,5.719,0,0,0,.817-.57,9.6,9.6,0,0,1,2.3-1.455c.536-.238,1.374-.735,1.67-.89C-853.977,612.6-853.506,612.324-853.606,612.614Z" transform="translate(887.016 -599.507)" fill="#dcdcdc"/>
      <g id="Group_3214" data-name="Group 3214" transform="translate(31.04 14.234)">
        <path id="Path_4664" data-name="Path 4664" d="M-793.759,637.479l.714.006a.154.154,0,0,0-.194-.169A2.49,2.49,0,0,0-793.759,637.479Z" transform="translate(793.884 -637.313)" fill="#c9c9c9"/>
        <path id="Path_4665" data-name="Path 4665" d="M-796.252,671.344l.593-.3s-.1.228-.157.248S-796.252,671.344-796.252,671.344Z" transform="translate(796.252 -669.346)" fill="#c9c9c9"/>
        <path id="Path_4666" data-name="Path 4666" d="M-791.622,649.325l.718-.034s.11-.143-.128-.125A2.579,2.579,0,0,0-791.622,649.325Z" transform="translate(791.855 -648.568)" fill="#c9c9c9"/>
        <path id="Path_4667" data-name="Path 4667" d="M-789.7,659.991l.6.037s.047-.105-.116-.131A1.388,1.388,0,0,0-789.7,659.991Z" transform="translate(790.028 -658.756)" fill="#c9c9c9"/>
      </g>
    </g>
  </g>
</svg>
